<?xml version="1.0" standalone="no"?>
<!DOCTYPE svg PUBLIC "-//W3C//DTD SVG 1.1//EN" "http://www.w3.org/Graphics/SVG/1.1/DTD/svg11.dtd" >
<!--
2013-9-30: Created.
-->
<svg>
<metadata>
Created by iconfont
</metadata>
<defs>

<font id="iconfont" horiz-adv-x="1024" >
  <font-face
    font-family="iconfont"
    font-weight="500"
    font-stretch="normal"
    units-per-em="1024"
    ascent="896"
    descent="-128"
  />
    <missing-glyph />
    
    <glyph glyph-name="tianmaoxingxiang2" unicode="&#983661;" d="M2873.45449 250.523034l0-352.017332-280.397667 0c23.53705 44.002202 35.817267 92.097536 35.817267 144.286208 0 168.845517-134.058701 309.03849-300.864614 317.22496-7.163494 3.069952-12.280218 4.093235-17.396941 4.093235-7.163494 0-10.233446-1.023283-17.396941-4.093235-166.805914-8.18647-299.841331-148.379443-299.841331-317.22496 0-52.18857 11.256832-100.284006 34.793882-144.286208l-1182.991617 0c23.53705 44.002202 35.817267 92.097536 35.817267 144.286208 0 168.845517-133.035418 309.03849-300.864614 317.22496-5.116723 3.069952-9.210163 4.093235-16.373555 4.093235-5.116723 0-10.233446-1.023283-17.396941-4.093235-166.805914-8.18647-300.864614-148.379443-300.864614-317.22496 0-52.18857 13.303501-100.284006 34.793882-144.286208l-279.374318 0 0 352.017332 0 218.987526 0 1.023306c0 5.116518 0 8.18647 1.023386 9.209754 3.070054 121.773466 22.513664 312.108442 123.825254 369.41353 116.66176 66.514944 224.113459-54.235238 245.60384-79.817933 152.479027-170.892186 316.214886-385.78647 615.032832-385.78647l70.611091 0 379.662535 0 1.023349 0 378.639185 0 71.63444 0c297.79456 0 462.553805 214.894285 614.009446 385.78647 20.466995 23.536026 130.988646 148.379443 245.60384 79.817933 102.334874-58.328474 121.778586-246.616781 124.84864-369.41353l0-9.209756 0-1.023306 0-218.987526L2873.454481 250.523031zM1527.750349 69.397811c17.396941 21.489459 4.09344 40.93225-31.723827 40.93225l-117.685152 0c-33.770496 0-49.120768-19.44279-32.747213-40.93225l33.770496-47.072051c13.303501-19.44279 27.630387-39.908966 38.887219-53.211955 3.070054-3.069952 5.116723-7.163187 18.420326-7.163187s16.373555 4.093235 19.44361 7.163187c9.210163 13.302989 23.53705 33.769062 38.887219 53.211955L1527.750349 69.397811zM564.778701 360.016794l15.350237 0c49.120768-24.559309 86.984704-157.589197 86.984704-318.248243 0-52.18857-4.09344-100.284006-12.280218-143.262822l-184.202847 0c-7.163494 44.002202-11.256832 91.074253-11.256832 143.262822 0 160.659046 37.863936 293.688832 86.984704 318.248243L564.778798 360.016794zM2310.61248 360.016794l17.396936 0c48.097382-24.559309 85.961318-158.61248 85.961318-318.248243 0-52.18857-4.09344-99.260723-11.256832-143.262822l-184.202847 0c-7.163494 44.002202-10.233446 91.074253-10.233446 143.262822 0 160.659046 35.817267 293.688832 84.937933 318.248243L2310.612448 360.016794z"  horiz-adv-x="2874" />

    
    <glyph glyph-name="appreciate" unicode="&#58948;" d="M873.6 480h-188.8c12.8 44.8 28.8 115.2 19.2 188.8-6.4 60.8-41.6 105.6-92.8 124.8-38.4 12.8-76.8 6.4-99.2-16-25.6-25.6-38.4-76.8-51.2-128-9.6-35.2-16-70.4-28.8-89.6-32-54.4-102.4-76.8-115.2-80h-92.8c-19.2 0-32-12.8-32-32v-448c0-19.2 12.8-32 32-32h547.2c124.8 0 188.8 390.4 188.8 412.8 0 57.6-44.8 99.2-86.4 99.2zM771.2 35.2h-515.2v380.8h76.8c22.4 6.4 108.8 38.4 150.4 108.8 16 25.6 25.6 64 35.2 105.6 9.6 38.4 19.2 86.4 35.2 99.2 3.2 3.2 19.2 6.4 38.4 0 16-3.2 41.6-19.2 48-67.2 12.8-102.4-32-201.6-32-201.6-3.2-9.6-3.2-22.4 3.2-32 6.4-9.6 16-16 25.6-16h236.8c6.4 0 25.6-12.8 25.6-32-3.2-67.2-83.2-345.6-128-345.6zM96 480c-19.2 0-32-12.8-32-32v-448c0-19.2 12.8-32 32-32s32 12.8 32 32v448c0 19.2-12.8 32-32 32z"  horiz-adv-x="1024" />

    
    <glyph glyph-name="favorfill" unicode="&#58955;" d="M957.216 491.68c-3.808 11.36-13.632 19.68-25.504 21.504l-270.336 41.728-120.8 258.624C535.328 824.768 524.032 831.968 511.648 832c0 0-0.032 0-0.064 0-12.384 0-23.648-7.136-28.928-18.336l-121.856-258.016-270.72-40.8c-11.872-1.792-21.728-10.048-25.568-21.408-3.84-11.36-0.992-23.936 7.36-32.512l196.448-202.08L221.44-25.952c-1.984-12.096 3.104-24.256 13.12-31.328 9.984-7.072 23.168-7.808 33.888-1.92l241.824 133.024 241.312-133.856C756.416-62.656 761.76-64 767.104-64c0.256 0 0.48 0 0.64 0 17.696 0 32 14.304 32 32 0 3.968-0.704 7.776-2.016 11.296l-44.896 278.688 196.928 201.248C958.08 467.776 960.992 480.32 957.216 491.68z"  horiz-adv-x="1024" />

    
    <glyph glyph-name="favor" unicode="&#58956;" d="M767.104-63.936c-5.344 0-10.688 1.344-15.52 4.032l-241.312 133.856-241.824-133.024c-10.72-5.92-23.904-5.152-33.888 1.92-10.016 7.072-15.104 19.264-13.12 31.328l46.88 284.736-196.448 202.08c-8.256 8.512-11.168 20.928-7.456 32.192 3.68 11.296 13.312 19.616 25.024 21.632l155.072 26.592c17.632 2.944 33.984-8.736 36.96-26.144 2.976-17.408-8.704-33.952-26.144-36.96l-95.168-16.32 165.344-170.08c7.072-7.296 10.272-17.504 8.64-27.488l-38.816-235.68 199.616 109.824c9.632 5.312 21.344 5.312 30.944-0.064l199.168-110.464-38.016 235.776c-1.632 10.016 1.632 20.224 8.704 27.456l164.672 168.256-225.664 34.816c-10.56 1.632-19.584 8.416-24.128 18.08l-99.2 212.384-100.064-211.84c-7.552-16-26.624-22.816-42.624-15.264-15.968 7.552-22.816 26.624-15.264 42.624l129.152 273.44c5.312 11.2 16.576 18.336 28.928 18.336 0 0 0.032 0 0.064 0 12.416-0.032 23.68-7.232 28.928-18.464l120.8-258.624 270.336-41.728c11.872-1.824 21.696-10.144 25.504-21.504 3.776-11.36 0.864-23.936-7.488-32.48l-196.928-201.216 45.92-284.864c1.952-12.096-3.2-24.256-13.216-31.296C780-62.016 773.568-63.936 767.104-63.936z"  horiz-adv-x="1024" />

    
    <glyph glyph-name="tao" unicode="&#59112;" d="M152.576 542.88l-50.944-78.688 93.856-58.496c0 0 62.528-32.192 32.544-92.512C200.352 256 64 131.008 64 131.008l122.112-76.64c84.608 184.576 79.04 160 100.128 226.432 21.792 67.488 26.624 119.264-10.4 156.8C228.416 485.568 223.168 490.112 152.576 542.88zM219.36 572.512c44.384 0 80.352 32.384 80.352 72.32 0 40.192-35.968 72.672-80.352 72.672-44.736 0-80.448-32.512-80.448-72.672C138.944 604.864 174.624 572.512 219.36 572.512zM944.992 563.552c0 0-26.688 207.744-478.24 79.136 19.488 33.824 28.544 55.68 28.544 55.68l-112.736 31.936c0 0-45.536-149.632-126.784-219.264 0 0 78.72-45.76 77.92-44.448 22.528 22.688 42.848 45.824 60.096 68.192 18.144 8.064 35.488 15.424 52.352 22.368-21.056-37.888-54.464-94.56-88.288-130.432l47.424-41.888c0 0 32.48 31.424 67.84 69.184l40.288 0 0-69.824-157.184 0 0-55.872 157.184 0 0-133.696-5.984 0.256c-17.312 0.864-44.224 3.744-54.944 20.576-12.704 20.576-3.264 57.984-2.72 81.248l-108.608 0-3.904-2.24c0 0-39.84-179.424 114.688-175.488 144.576-3.936 227.488 40.736 267.296 71.488l15.84-59.488 89.152 37.632-60.32 148.576-72.416-22.688 13.344-50.816c-18.304-14.048-39.712-24.448-62.688-32.192l0 116.864 153.216 0 0 55.872-153.216 0 0 69.824 153.824 0 0 55.808-273.504 0c19.712 24.192 35.168 46.496 39.264 60.32l-47.808 13.12c204.704 74.048 318.72 61.248 317.824-59.936l0-318.816c0 0 12.032-109.44-112.512-101.696l-67.456 14.56-15.712-64.448c0 0 290.848-83.936 314.656 141.44C974.528 419.68 944.992 563.552 944.992 563.552z"  horiz-adv-x="1024" />

    
    <glyph glyph-name="mobiletao" unicode="&#59113;" d="M959.808 583.296c-0.128 14.272-0.224 20.096-0.352 26.88-0.416 20.096-1.696 40.448-5.088 58.592-3.744 19.808-8.768 37.824-17.92 55.84-9.28 18.272-21.984 34.048-35.712 48.16-14.048 13.792-29.888 26.432-48.16 35.712-17.984 9.12-36 14.144-55.808 17.92-18.144 3.36-38.496 4.704-58.624 5.056-6.784 0.128-12.576 0.224-26.912 0.384-13.568 0.128-24.672 0.16-32.896 0.16-41.664 0-291.04 0-332.672 0-8.224 0-19.328-0.032-32.928-0.16-14.304-0.16-20.128-0.256-26.88-0.384C265.728 831.104 245.408 829.76 227.232 826.368 207.392 822.624 189.376 817.6 171.392 808.48c-18.272-9.28-34.08-21.952-48.16-35.712-13.792-14.08-26.432-29.888-35.68-48.16C78.4 706.56 73.376 688.576 69.632 668.736 66.176 650.592 64.896 630.24 64.576 610.144 64.416 603.36 64.32 597.568 64.192 583.296 64.064 569.696 64 558.56 64 550.336l0-332.704c0-8.224 0.064-19.328 0.192-32.928 0.128-14.24 0.224-20.128 0.384-26.88 0.352-20.096 1.632-40.448 5.056-58.592 3.744-19.808 8.768-37.824 17.952-55.84 9.248-18.24 21.92-34.048 35.68-48.128 14.048-13.792 29.888-26.464 48.16-35.712 17.984-9.12 36-14.176 55.808-17.92 18.176-3.392 38.496-4.704 58.624-5.088 6.752-0.128 12.576-0.224 26.88-0.352C326.304-63.936 337.44-64 345.664-64c41.664 0 291.04 0 332.672 0 8.224 0 19.328 0.064 32.896 0.192 14.336 0.128 20.128 0.224 26.912 0.352 20.128 0.384 40.48 1.696 58.624 5.088 19.808 3.712 37.824 8.768 55.808 17.92 18.272 9.248 34.08 21.952 48.16 35.712 13.76 14.048 26.432 29.888 35.712 48.128 9.12 18.016 14.144 36.032 17.92 55.84 3.392 18.144 4.672 38.496 5.088 58.592 0.128 6.752 0.224 12.64 0.352 26.88C959.936 198.272 960 209.408 960 217.632L960 550.336C960 558.56 959.936 569.696 959.808 583.296zM280.576 656.896c35.104 0 63.648-25.888 63.648-58.08 0-32.128-28.576-58.208-63.648-58.208-35.424 0-63.904 26.08-63.904 58.208C216.672 631.04 245.12 656.896 280.576 656.896zM333.632 307.552c-16.832-52.896-12.48-33.376-79.52-181.12l-96.736 61.44c0 0 108.192 99.968 130.272 145.728 23.552 48.128-26.08 73.824-26.08 73.824l-74.272 46.88 40.384 62.912c55.872-42.272 60.064-45.824 97.664-84.288C354.624 402.912 350.976 361.632 333.632 307.552zM860.576 238.624c-18.848-180.128-249.6-113.088-249.6-113.088l12.544 51.52 53.504-11.584c98.656-6.432 89.184 81.12 89.184 81.12l0 255.008c0.704 96.864-89.6 107.072-251.936 48.032l37.696-10.56c-3.072-11.2-15.392-28.928-31.104-48.224l217.088 0 0-44.704-122.176 0 0-55.68 121.76 0 0-44.672-121.76 0 0-93.472c18.336 6.016 35.296 14.432 49.888 25.632l-10.688 40.672 57.376 18.208 47.968-119.072-70.688-29.92-12.608 47.424c-31.648-24.576-97.216-60.16-212-56.896-122.368-3.264-90.88 140.224-90.88 140.224l3.04 1.632 86.176 0c-0.672-18.368-8.096-48.448 2.048-64.8 8.48-13.472 29.92-15.712 43.552-16.48 1.504-0.096 3.264-0.096 4.704-0.096l0 106.912-124.608 0 0 44.672 124.608 0 0 55.68-32.032 0c-28-30.144-53.632-55.2-53.632-55.2l-37.728 33.344c26.752 28.672 53.44 74.08 70.016 104.224-13.44-5.44-27.136-11.52-41.44-17.792-13.76-17.984-29.824-36.32-47.68-54.56 0.608-0.928-61.728 35.616-61.728 35.616 64.352 55.648 100.416 175.328 100.416 175.328l89.536-25.536c0 0-7.296-17.664-22.752-44.672 358.176 103.04 379.232-63.2 379.232-63.2S879.392 418.88 860.576 238.624z"  horiz-adv-x="1024" />

    
    <glyph glyph-name="sousuo" unicode="&#983257;" d="M809.246403 124.073062 777.737782 92.541929 924.965961-54.667831 956.476629-23.157163ZM454.878536 825.714214C239.51556 825.714214 64.93236 651.152503 64.93236 435.768037c0-215.341486 174.583201-389.945153 389.945153-389.945153 215.362976 0 389.9472 174.603667 389.9472 389.945153C844.825736 651.152503 670.241512 825.714214 454.878536 825.714214zM454.878536 90.388892c-190.750415 0-345.381192 154.626683-345.381192 345.379145 0 190.751439 154.629753 345.380168 345.381192 345.380168 190.752462 0 345.382215-154.62873 345.382215-345.380168C800.259728 245.016599 645.630998 90.388892 454.878536 90.388892z"  horiz-adv-x="1024" />

    
    <glyph glyph-name="shouji" unicode="&#58882;" d="M757.784846-146.112384 260.057921-146.112384c-29.475312 0-53.328579 20.585851-53.328579 45.965891L206.729342 696.684648c0 25.374924 23.853267 45.965891 53.328579 45.965891l497.726925 0c29.475312 0 53.328579-20.590967 53.328579-45.965891l0-796.83114C811.108309-125.526533 787.259134-146.112384 757.784846-146.112384L757.784846-146.112384zM508.916778-100.146493c19.617803 0 35.554774 13.746072 35.554774 30.65723 0 16.903995-15.936971 30.652114-35.554774 30.652114-19.61371 0-35.545564-13.748119-35.545564-30.652114C473.366098-86.400421 489.302045-100.146493 508.916778-100.146493L508.916778-100.146493zM757.784846 650.71978 260.057921 650.71978l0-643.591037 497.726925 0L757.784846 650.71978 757.784846 650.71978zM757.784846 650.71978"  horiz-adv-x="1024" />

    
    <glyph glyph-name="31guanzhudianpu" unicode="&#983477;" d="M821.673945 693.673945c-170.763199 170.761152-448.584692 170.761152-619.346867 0-170.763199-170.763199-170.763199-448.584692 0-619.346867 170.762175-170.763199 448.582645-170.763199 619.346867 0C992.435097 245.089253 992.435097 522.910747 821.673945 693.673945zM777.236873 118.765173c-146.255015-146.255015-384.239198-146.231479-530.472723 0-146.252968 146.255015-146.252968 384.217708 0.002047 530.470677 146.231479 146.231479 384.215662 146.255015 530.470677 0C923.468352 503.001301 923.468352 264.997676 777.236873 118.765173zM735.871767 413.883611l-191.777815 0.310062 1.040702 190.250018c0.10847 17.274432-13.82589 31.343869-31.100322 31.452339-17.276479 0.110517-31.365358-13.845333-31.454386-31.100322l-1.062192-190.492542-188.921767 0.286526c-17.297968 0-31.321356-13.934361-31.321356-31.231305-0.023536-17.274432 13.957897-31.299867 31.233352-31.322379l188.656731-0.286526-1.01819-188.900278c-0.089028-17.297968 13.823843-31.341822 31.100322-31.454386 8.715499-0.042979 16.58984 3.452635 22.296819 9.159614 5.617951 5.615904 9.092076 13.381775 9.157567 21.940708l1.038656 189.146894 192.040804-0.312108c8.650007-0.019443 16.479323 3.474125 22.164812 9.157567 5.662977 5.662977 9.134031 13.472849 9.155521 22.075785C767.127631 399.838733 753.169735 413.840632 735.871767 413.883611z"  horiz-adv-x="1024" />

    
    <glyph glyph-name="31daifahuo" unicode="&#983491;" d="M838.174758 755.555317 180.850951 755.555317c-50.327222 0-91.27482-40.977273-91.27482-91.304496l0-562.711985c0-50.327222 40.947598-91.27482 91.27482-91.27482l657.323806 0c50.327222 0 91.27482 40.947598 91.27482 91.27482l0 225.270627 0 23.254633 0 314.185702C929.449577 714.577021 888.503003 755.555317 838.174758 755.555317zM833.695746 698.402643c21.315468 0 38.632879-17.317411 38.632879-38.632879l0-151.072741-221.182518 0.361227-0.029676 189.344393L833.695746 698.402643zM591.498612 698.402643l0.060375-387.647831-55.288211 33.341363-5.65172 2.856048-0.330528-0.63138c-8.267291 2.795673-17.407462 1.923816-24.802896-2.52552-1.202385-0.751107-2.013867-1.593288-1.864464-1.804089l-53.18327-29.582759-0.060375 385.994168L591.498612 698.402643zM146.698107 659.770787c0 21.315468 17.317411 38.632879 38.632879 38.632879l205.428719 0 0.029676-189.735295-244.091274 0.390903L146.698107 659.770787zM872.327602 106.017848c0-21.315468-17.317411-38.632879-38.632879-38.632879L185.330986 67.384969c-21.315468 0-38.632879 17.317411-38.632879 38.632879L146.698107 449.471131l244.12095-0.361227 0.029676-187.209776c0-19.301602 19.180851-35.024701 38.422078-28.319999l0.51063-0.842181 91.454922 50.808176 84.811618-51.560306c13.709233-8.116865 32.800034-3.1569 40.857547 10.432607 2.885723 4.869914 4.118807 10.642384 3.698229 16.174378 0.029676 0.090051 0.060375 0.180102 0.090051 0.270153l0.480954 0.51063-0.029676 190.095499 221.182518-0.361227 0-99.287307 0-23.074531L872.327602 106.017848z"  horiz-adv-x="1024" />

    
    <glyph glyph-name="31daipingjia" unicode="&#983495;" d="M860.377432 762.785999 163.652244 762.785999c-41.643446 0-75.546603-33.903158-75.546603-75.546603l0-510.917342c0-41.643446 33.903158-75.546603 75.546603-75.546603l252.743328 0 95.618754-95.559403 95.589079 95.559403 252.774027 0c41.643446 0 75.516928 33.903158 75.516928 75.546603L935.89436 687.238372C935.89436 728.882841 902.020878 762.785999 860.377432 762.785999zM877.749078 664.016485l0-464.473567c0-22.381753-18.21178-40.593534-40.593534-40.593534L579.520813 158.949384l-67.506487-67.565838-67.536162 67.565838L186.874131 158.949384c-22.412452 0-40.624233 18.21178-40.624233 40.593534L146.249899 664.016485c0 22.412452 18.21178 40.624233 40.624233 40.624233l650.28039 0C859.537298 704.639694 877.749078 686.428937 877.749078 664.016485zM302.83519 492.250446 741.266637 492.250446c14.851243 0 26.972305 12.481266 26.972305 27.812439 0 15.361873-12.121062 27.872814-26.972305 27.872814L302.83519 547.9357c-14.851243 0-26.942629-12.510942-26.942629-27.872814C275.892561 504.731712 287.983947 492.250446 302.83519 492.250446zM741.266637 399.421224 302.83519 399.421224c-14.851243 0-26.942629-12.510942-26.942629-27.842115 0-15.331173 12.091386-27.842115 26.942629-27.842115L741.266637 343.736994c14.851243 0 26.972305 12.510942 26.972305 27.842115C768.238942 386.910283 756.11788 399.421224 741.266637 399.421224z"  horiz-adv-x="1024" />

    
    <glyph glyph-name="tuikuantuihuo" unicode="&#983497;" d="M600.139409 372.959549l7.701402 0.150426 0 1.203408c10.16757 3.278673 17.568121 12.844539 17.568121 24.125467 0 13.957897-11.341303 25.299199-25.2685 25.299199l-98.127901 0 0 21.478174 102.609982 100.624768 4.872984 5.02341-0.451278 0.572028c2.105964 3.459798 3.368724 7.40055 3.6399 11.58178 0.421602 6.768147-1.834788 13.295817-6.347568 18.410302-8.844435 9.987468-25.238824 11.400654-36.008099 1.865487l-93.253894-91.960435-98.698906 96.864118c-10.017144 8.904811-26.862811 7.941879-35.707246-2.105964-7.610328-8.543583-8.332782-20.87647-2.557242-30.172183l-0.541329-0.691755L451.233008 446.028729l0-22.290679-98.127901 0-7.701402-0.090051 0-1.203408c-10.16757-3.278673-17.568121-12.844539-17.568121-24.095791s7.40055-20.817118 17.568121-24.095791l0-1.293459 105.82828 0 0-38.98592-105.82828-0.060375 0-1.203408c-10.19827-3.248997-17.597797-12.814864-17.597797-24.095791s7.40055-20.846794 17.597797-24.125467l0-1.293459 105.82828 0 0-96.803743 0.090051-7.701402 1.203408 0c3.278673-10.16757 12.844539-17.568121 24.095791-17.568121s20.817118 7.40055 24.095791 17.568121l1.293459 0L502.010485 283.194106l98.127901 0 7.701402 0.150426 0 1.203408c10.16757 3.278673 17.568121 12.844539 17.568121 24.125467 0 13.957897-11.341303 25.299199-25.2685 25.299199l-98.127901 0 0 38.98592L600.139409 372.958526zM955.443601 421.117362c-10.555403 10.730389-27.740808 10.818393-38.412868 0.323365l-25.203008-24.800849C885.08516 620.407268 702.013635 799.854243 476.613048 799.854243c-229.670843 0-415.854243-186.185446-415.854243-415.854243 0-229.670843 186.1834-415.854243 415.854243-415.854243 127.552048 0 241.064334 57.961086 317.331345 148.385539 3.13234 2.357697 5.696746 5.206582 7.632841 8.638751 0.379647 0.477884 0.832971 0.8913 1.210571 1.370207l-0.208754 0.116657c1.796926 3.727904 2.998287 7.776104 2.998287 12.192693 0 15.684214-12.715603 28.40084-28.40084 28.40084-10.070356 0-18.495236-5.542226-23.539112-13.44522-66.165955-79.488379-165.761278-130.213667-277.025361-130.213667-198.729134 0-360.40742 161.678286-360.40742 360.40742 0 198.72811 161.678286 360.405373 360.40742 360.405373s360.40742-161.678286 360.40742-360.405373c0-1.297552-0.12996-2.562359-0.148379-3.853771l-41.003879 41.11849c-10.583033 10.583033-27.799136 10.641361-38.442544 0.058328-10.611685-10.611685-10.641361-27.799136-0.058328-38.441521l75.026764-75.233472c5.305843-5.305843 12.294001-7.988951 19.250436-7.988951 0.167822 0 0.323365 0.092098 0.491187 0.096191 2.099824-0.509606 4.169973-1.246387 6.318916-1.246387 6.868431 0 13.766538 2.62478 19.043728 7.81192l77.620845 76.383668C965.819926 393.228175 965.966259 410.444279 955.443601 421.117362z"  horiz-adv-x="1024" />

    
    <glyph glyph-name="31gouwuchexuanzhong" unicode="&#983505;" d="M914.563542 688.730353c-15.143908 17.145495-36.001959 26.574239-58.688657 26.574239L247.978814 715.304591l-2.332115 13.46057c-5.294586 43.370787-43.400462 77.285201-86.785575 77.285201l-38.540781 0c-15.869433 0-28.77844-12.910031-28.77844-28.77844s12.910031-28.77844 28.77844-28.77844l38.540781 0c14.302751 0 27.965935-12.851703 29.851888-28.053939l29.184693-168.726819 51.305503-361.272114c5.250584-43.313481 42.921555-77.226872 85.784782-77.226872l491.37117 0c15.869433 0 28.77844 12.910031 28.77844 28.77844 0 15.839757-12.910031 28.749788-28.77844 28.749788l-491.37117 0c-13.794168 0-26.936489 12.44545-28.705785 27.183106l-4.253884 29.958312 481.047034 36.592406c42.935881 0 80.534198 33.217543 85.697801 75.601862l47.694255 272.730545C939.919023 641.413698 931.941328 669.11869 914.563542 688.730353zM362.821399 79.995171c-32.536021 0-59.022255-26.487258-59.022255-59.037605 0-32.521694 26.487258-59.007929 59.022255-59.007929 32.536021 0 59.022255 26.487258 59.022255 59.007929C421.843654 53.508937 395.356396 79.995171 362.821399 79.995171zM786.364765 79.995171c-32.550347 0-59.036581-26.487258-59.036581-59.037605 0-32.521694 26.487258-59.007929 59.036581-59.007929 32.521694 0 59.007929 26.487258 59.007929 59.007929C845.372693 53.508937 818.886459 79.995171 786.364765 79.995171z"  horiz-adv-x="1024" />

    
    <glyph glyph-name="juhuasuan" unicode="&#58927;" d="M291.2 547.2l131.2 0 0 32L291.2 579.2 291.2 547.2zM291.2 620.8l131.2 0L422.4 649.6 291.2 649.6 291.2 620.8zM291.2 476.8c44.8 3.2 89.6 6.4 131.2 6.4l0 22.4L291.2 505.6 291.2 476.8zM816 896 208 896C92.8 896 0 803.2 0 688l0-604.8C0-35.2 92.8-128 208-128l604.8 0c115.2 0 208 92.8 208 208L1020.8 688C1024 803.2 931.2 896 816 896zM160 48C153.6 67.2 131.2 96 131.2 96c188.8 32 272 128 272 128l57.6-60.8C393.6 99.2 211.2 48 160 48zM745.6 438.4c0 0 25.6-60.8 51.2-89.6-48-9.6-121.6-19.2-198.4-25.6 22.4-28.8 48-54.4 83.2-83.2 86.4 32 134.4 105.6 134.4 105.6l102.4-60.8c0 0-80-70.4-163.2-89.6 48-25.6 105.6-48 166.4-60.8 0 0-70.4-67.2-89.6-89.6C704 96 630.4 160 588.8 208l0-166.4-124.8 0 0 272c-12.8 0-22.4-3.2-32-3.2l32-32C393.6 214.4 211.2 160 160 160c-6.4 19.2-28.8 48-28.8 48 118.4 19.2 195.2 64 236.8 96-92.8-6.4-160-9.6-160-9.6l-12.8 60.8c54.4 0 140.8 6.4 230.4 16l0 44.8c-176-16-268.8-48-268.8-48l-35.2 89.6c25.6 3.2 51.2 6.4 80 9.6L201.6 649.6 147.2 649.6l0 64 435.2 0 0-32c41.6 9.6 118.4 28.8 198.4 25.6 64 0 108.8-19.2 128-54.4 12.8-22.4 16-48-3.2-80-12.8-16-28.8-35.2-54.4-54.4 28.8-19.2 57.6-41.6 83.2-64-41.6-35.2-92.8-73.6-92.8-73.6-22.4 32-44.8 60.8-70.4 83.2-22.4-12.8-48-28.8-76.8-44.8C710.4 425.6 729.6 432 745.6 438.4zM646.4 620.8c0 0 57.6-22.4 124.8-57.6 19.2 12.8 32 22.4 41.6 35.2 9.6 12.8 12.8 25.6 6.4 35.2-6.4 16-25.6 19.2-54.4 22.4 0 0-3.2 0-3.2 0-108.8 0-172.8-48-176-48l-22.4 44.8-48 0 0-163.2c35.2 0 57.6 0 57.6 0l0-57.6c-19.2 0-38.4 0-57.6-3.2l0 0 0-38.4c41.6 6.4 83.2 12.8 118.4 19.2L588.8 480c35.2 12.8 70.4 28.8 105.6 41.6-51.2 35.2-92.8 48-92.8 48L646.4 620.8z"  horiz-adv-x="1024" />

    
    <glyph glyph-name="yan" unicode="&#58990;" d="M507.863281 136.545603c84.678673 0 153.506316 71.18432 153.506316 158.655598 0 87.40067-68.827644 158.58499-153.506316 158.58499-84.672533 0-153.526782-71.18432-153.526782-158.58499C354.336498 207.730946 423.189725 136.545603 507.863281 136.545603L507.863281 136.545603zM507.863281 416.697444c64.171596 0 116.417569-54.526925 116.417569-121.496243 0-67.060392-52.245973-121.565828-116.417569-121.565828-64.216621 0-116.437012 54.506459-116.437012 121.565828C391.426268 362.171542 443.646659 416.697444 507.863281 416.697444L507.863281 416.697444zM67.318266 293.292733c73.711889-188.877954 248.261495-310.986134 444.619824-310.986134 196.382889 0 371.028686 122.108181 444.714992 310.986134l2.652412 6.767131-2.652412 6.722105c-73.686306 188.87693-248.332103 310.911433-444.714992 310.911433-196.357306 0-370.882353-122.033479-444.619824-310.911433l-2.622736-6.722105L67.318266 293.292733 67.318266 293.292733zM511.937067 580.628191c178.719583 0 337.917534-109.866356 407.479912-280.568327-69.562378-170.772579-228.760329-280.663495-407.479912-280.663495-178.649998 0-337.79269 109.840774-407.409304 280.663495C174.144376 470.761834 333.288092 580.628191 511.937067 580.628191L511.937067 580.628191zM511.937067 580.628191"  horiz-adv-x="1024" />

    
    <glyph glyph-name="xiaomicopy" unicode="&#58950;" d="M871.149002 422.066752C881.476962 395.259911 886.627637 359.964722 886.627637 313.931498 886.627637 106.730628 718.901173-61.224439 512.017703-61.224439 305.134385-61.224439 137.407957 106.73065 137.407957 313.931498 137.407957 359.844701 142.531815 395.075865 152.805796 421.856822L153.707326 424.676808C177.790193 518.005982 262.088412 584.585268 359.296087 584.585268 408.89046 584.585268 456.979248 566.958528 495.375773 535.041215L512.132908 521.111759 528.795122 535.154622C566.597839 567.014634 614.961263 584.585268 664.739493 584.585268 761.564625 584.585268 846.019749 518.003785 870.246926 424.872016L871.149002 422.066752ZM360.140106 776.084628C365.640011 766.269754 370.008336 755.085446 373.241721 742.613604 373.289135 742.430712 373.336227 742.247794 373.382993 742.064853 196.865588 683.814938 69.459308 517.358377 69.459308 321.115292 69.459308 76.391322 267.591539-122.010988 512.017703-122.010988 756.444011-122.010988 954.576271 76.391294 954.576271 321.115292 954.576271 517.038984 827.584382 683.273003 651.514023 741.779565L651.514023 741.779565C651.584583 742.05763 651.655893 742.335648 651.727955 742.613605 654.93487 754.983352 659.258222 766.086559 664.69473 775.843319 685.137625 769.825211 721.341839 770.816353 783.76511 786.994006 825.6028 797.836777 852.033454 845.521333 807.490843 885.627768 778.660449 911.586827 720.16435 880.966935 682.4832 856.134783L682.4832 856.134783C681.039384 855.669897 679.619133 855.058761 678.241769 854.29589 641.735416 834.076345 617.737459 799.644048 605.992922 754.342893 605.983765 754.307567 605.974615 754.27224 605.965475 754.236913 575.687064 760.790385 544.255025 764.241573 512.017703 764.241573 480.094309 764.241573 448.960587 760.857268 418.954809 754.42747L418.954809 754.42747C407.202337 799.686908 383.211536 834.088931 346.727906 854.29589 344.832699 855.345576 342.856291 856.107983 340.849027 856.597404 303.146918 881.34452 245.196385 911.42585 216.544764 885.627768 172.0021 845.521333 198.43279 797.836777 240.270515 786.994006 303.515579 770.603376 339.846701 769.801747 360.140106 776.084628ZM742.274261 200.784295C740.893826 196.770344 739.343771 192.61813 737.632942 188.371817 728.600057 165.952099 716.699559 144.724334 702.117589 125.563555 657.162927 66.492852 594.273523 35.585562 512.017703 35.585562 429.761937 35.585562 366.872691 66.492803 321.917883 125.56356 307.335966 144.724418 295.43545 165.95224 286.402617 188.371827 284.691748 192.618239 283.141679 196.770458 281.761277 200.784292L281.761277 200.784292C283.042889 201.395467 284.328009 201.969733 285.616354 202.507276 290.282317 204.454074 294.674618 205.772019 298.635002 206.480191 300.119835 206.745701 301.307031 206.88561 301.276899 206.88561 314.333812 206.88561 324.934812 217.437529 324.934812 230.474171 324.934812 243.51081 314.333812 254.062731 301.276899 254.062731 298.345304 254.062731 294.554742 253.680388 290.282572 252.916458 282.901839 251.596675 275.198785 249.301893 267.351179 246.027601 244.170948 236.355999 222.566811 219.465705 203.434227 195.517351 195.282592 185.313931 196.985637 170.453744 207.229391 162.345514 217.449119 154.256273 232.311056 155.943794 240.443548 166.12328 241.31908 167.219184 242.198396 168.293147 243.081376 169.345244 253.596323 143.597301 267.345453 119.225962 284.225015 97.046011 338.097749 26.257007 414.825312-11.591506 512.017703-11.591506 609.210262-11.591506 685.937841 26.257009 739.810434 97.045999 756.690087 119.225958 770.439251 143.597315 780.954171 169.345264 781.837158 168.293157 782.71648 167.219188 783.592018 166.123274 791.724506 155.943794 806.586437 154.256271 816.806174 162.345522 827.049916 170.453744 828.752969 185.313933 820.601325 195.51736 801.46872 219.465723 779.864595 236.356007 756.684364 246.027601 748.836749 249.301898 741.133713 251.596677 733.752986 252.91646L733.752983 252.91646C729.480799 253.680388 725.690243 254.062731 722.758656 254.062731 709.701747 254.062731 699.100733 243.510808 699.100733 230.474171 699.100733 217.437531 709.701747 206.88561 722.758656 206.88561 722.728524 206.88561 723.915717 206.745701 725.400566 206.48019 729.360929 205.772019 733.753233 204.454072 738.419195 202.507274 739.707536 201.969733 740.992654 201.395469 742.274261 200.784295ZM621.30714 263.027591C603.106148 263.027591 588.351349 284.389793 588.351349 310.741478 588.351349 337.09299 603.106148 358.455365 621.30714 358.455365 639.508306 358.455365 654.263105 337.09299 654.263105 310.741478 654.263105 284.389793 639.508306 263.027591 621.30714 263.027591ZM411.587948 263.027591C393.386956 263.027591 378.631984 284.389793 378.631984 310.741478 378.631984 337.09299 393.386956 358.455365 411.587948 358.455365 429.788941 358.455365 444.543913 337.09299 444.543913 310.741478 444.543913 284.389793 429.788941 263.027591 411.587948 263.027591ZM512.017703 132.430622C468.200569 132.430622 432.679745 159.107558 432.679745 192.015273 432.679745 224.922988 468.200569 251.599924 512.017703 251.599924 555.83501 251.599924 591.355835 224.922988 591.355835 192.015273 591.355835 159.107558 555.83501 132.430622 512.017703 132.430622Z"  horiz-adv-x="1024" />

    
    <glyph glyph-name="sousuo1" unicode="&#58899;" d="M921.703661-77.32997c-9.824763 0-19.679202 3.756557-27.191292 11.268648L605.889879 222.560144c-11.838629 11.838629-14.662955 29.92659-7.031137 44.799322l4.777817 9.253758c0.690732 1.382487 1.502213 2.734274 2.373047 3.996011 28.364001 41.764196 43.326784 90.61888 43.326784 141.27663 0 138.903583-113.003703 251.906264-251.906264 251.906264-138.872884 0-251.876588-113.003703-251.876588-251.906264 0-138.872884 113.003703-251.876588 251.876588-251.876588 21.272489 0 38.458917-17.216103 38.458917-38.458917s-17.186428-38.458917-38.458917-38.458917c-181.298136 0-328.794421 147.496286-328.794421 328.794421 0 181.298136 147.496286 328.824097 328.794421 328.824097 181.328835 0 328.824097-147.526985 328.824097-328.824097 0-58.769498-15.473413-115.737978-44.949748-165.975149l267.591501-267.590478c15.023158-15.023158 15.023158-39.36045 0-54.383608C941.383886-73.573413 931.528424-77.32997 921.703661-77.32997z"  horiz-adv-x="1024" />

    
    <glyph glyph-name="pinglun" unicode="&#59150;" d="M896.974848 796.442624c39.237632 0 71.159808-32.401408 71.159808-72.228864l0-517.009408c0-24.2688-7.391232-64.980992-56.891392-64.980992l-256 0-26.64448 0-17.057792-20.46976-98.514944-118.2208-98.51904 118.2208-17.057792 20.46976-26.64448 0-256 0c-49.50016 0-56.891392 40.712192-56.891392 64.980992L57.913344 724.21376c0 39.827456 31.8976 72.228864 71.10656 72.228864L896.974848 796.442624M896.974848 853.331968 129.017856 853.331968C58.322944 853.331968 1.024 795.541504 1.024 724.21376l0-517.009408c0-71.266304 43.085824-121.870336 113.780736-121.870336l256 0 142.221312-170.665984 142.219264 170.665984 256 0c70.69696 0 113.780736 50.601984 113.780736 121.870336L1025.026048 724.21376C1025.024 795.53536 967.675904 853.331968 896.974848 853.331968L896.974848 853.331968zM225.024 401.774592c-31.420416 0-56.885248 25.454592-56.885248 56.91392 0 31.414272 25.46688 56.866816 56.885248 56.866816 31.424512 0 56.891392-25.452544 56.891392-56.866816C281.9072 427.235328 256.448512 401.774592 225.024 401.774592L225.024 401.774592 225.024 401.774592zM509.47072 401.774592c-31.420416 0-56.889344 25.454592-56.889344 56.91392 0 31.414272 25.468928 56.866816 56.889344 56.866816 31.422464 0 56.889344-25.452544 56.889344-56.866816C566.358016 427.235328 540.893184 401.774592 509.47072 401.774592L509.47072 401.774592zM793.911296 401.774592c-31.424512 0-56.885248 25.454592-56.885248 56.91392 0 31.414272 25.460736 56.866816 56.885248 56.866816 31.422464 0 56.891392-25.452544 56.891392-56.866816C850.802688 427.235328 825.33376 401.774592 793.911296 401.774592L793.911296 401.774592zM793.911296 401.774592"  horiz-adv-x="1026" />

    
    <glyph glyph-name="jiuzhenjilu" unicode="&#58932;" d="M301.176471 317.741176 722.823529 317.741176c6.023529 0 12.047059-6.023529 12.047059-12.047059l0-45.176471c0-6.023529-6.023529-12.047059-12.047059-12.047059l-424.658824 0c-6.023529 0-12.047059 6.023529-12.047059 12.047059l0 45.176471C289.129412 311.717647 295.152941 317.741176 301.176471 317.741176zM301.176471 161.129412 722.823529 161.129412c6.023529 0 12.047059-6.023529 12.047059-12.047059l0-45.176471c0-6.023529-6.023529-12.047059-12.047059-12.047059L301.176471 91.858824c-6.023529 0-12.047059 6.023529-12.047059 12.047059l0 45.176471C289.129412 155.105882 295.152941 161.129412 301.176471 161.129412zM867.388235 70.776471c0-42.164706 0-60.235294 0-90.352941-30.117647 0-42.164706 0-90.352941 0l-536.094118 0c-54.211765 0-90.352941 0-90.352941 0 0 12.047059 0 42.164706 0 90.352941L150.588235 697.223529c0 39.152941 0 69.270588 0 90.352941 15.058824 0 39.152941 0 90.352941 0l445.741176 0 66.258824 90.352941-602.352941 0c-48.188235 0-90.352941-39.152941-90.352941-90.352941l0-801.129412c0-48.188235 39.152941-90.352941 90.352941-90.352941l713.788235 0c48.188235 0 90.352941 39.152941 90.352941 90.352941L954.729412 627.952941l-90.352941-66.258824L867.388235 70.776471zM831.247059 832.752941c6.023529 9.035294 15.058824 21.082353 21.082353 27.105882 15.058824 15.058824 36.141176 12.047059 48.188235 9.035294 12.047059-6.023529 33.129412-21.082353 45.176471-39.152941 6.023529-12.047059 12.047059-27.105882 0-45.176471-12.047059-15.058824-21.082353-27.105882-21.082353-27.105882L831.247059 832.752941zM801.129412 793.6c0 0-162.635294-216.847059-174.682353-231.905882-6.023529-9.035294-9.035294-15.058824-12.047059-24.094118-3.011765-12.047059-12.047059-69.270588-15.058824-84.329412 0-15.058824 6.023529-21.082353 21.082353-18.070588 15.058824 3.011765 66.258824 27.105882 81.317647 39.152941 9.035294 6.023529 15.058824 12.047059 21.082353 18.070588 9.035294 9.035294 171.670588 228.894118 171.670588 228.894118L801.129412 793.6z"  horiz-adv-x="1024" />

    
    <glyph glyph-name="dingdan" unicode="&#59191;" d="M800.037628-32.016126 223.962372-32.016126c-52.980346 0-95.983874 43.003528-95.983874 95.983874l0 639.892491c0 52.980346 43.003528 95.983874 95.983874 95.983874l575.903242 0c52.980346 0 95.983874-43.003528 95.983874-95.983874l0-639.892491C896.021502 11.159415 852.84596-32.016126 800.037628-32.016126zM223.962372 736.026877c-17.545439 0-31.994625-14.449185-31.994625-31.994625l0-639.892491c0-17.717453 14.449185-31.994625 31.994625-31.994625l575.903242 0c17.717453 0 31.994625 14.277171 31.994625 31.994625l0 639.892491c0 17.545439-14.277171 31.994625-31.994625 31.994625L223.962372 736.026877zM640.924576 351.231312 287.779607 351.231312c-17.717453 0-31.994625 14.277171-31.994625 31.994625 0 17.717453 14.277171 31.994625 31.994625 31.994625l353.144969 0c17.717453 0 31.994625-14.277171 31.994625-31.994625C672.9192 365.508483 658.642029 351.231312 640.924576 351.231312zM734.84428 160.467663l-447.236687 0c-17.717453 0-31.994625 14.277171-31.994625 31.994625s14.277171 31.994625 31.994625 31.994625l447.236687 0c17.717453 0 31.994625-14.277171 31.994625-31.994625S752.561734 160.467663 734.84428 160.467663zM255.784982 590.674954c0-26.490173 21.501764-47.991937 47.991937-47.991937s47.991937 21.501764 47.991937 47.991937-21.501764 47.991937-47.991937 47.991937S255.784982 617.165127 255.784982 590.674954zM463.061986 590.674954c0-26.490173 21.501764-47.991937 47.991937-47.991937s47.991937 21.501764 47.991937 47.991937-21.501764 47.991937-47.991937 47.991937S463.061986 617.165127 463.061986 590.674954zM671.199059 590.674954c0-26.490173 21.501764-47.991937 47.991937-47.991937s47.991937 21.501764 47.991937 47.991937-21.501764 47.991937-47.991937 47.991937S671.199059 617.165127 671.199059 590.674954z"  horiz-adv-x="1024" />

    
    <glyph glyph-name="gouwuche" unicode="&#59197;" d="M352.456912 63.967747c-35.434907 0-63.989249-28.554342-63.989249-63.989249 0-35.434907 28.554342-63.989249 63.989249-63.989249s63.989249 28.554342 63.989249 63.989249C416.446162 35.413405 387.891819 63.967747 352.456912 63.967747L352.456912 63.967747zM800.55367 63.967747c-35.434907 0-63.989249-28.554342-63.989249-63.989249 0-35.434907 28.554342-63.989249 63.989249-63.989249s63.989249 28.554342 63.989249 63.989249C864.54292 35.413405 835.816563 63.967747 800.55367 63.967747L800.55367 63.967747zM864.026877 95.962372 344.200235 95.962372c-46.099782 0-86.695112 36.466991-92.199563 83.082815l-54.356459 382.043339L166.853687 739.639174c-1.892155 15.653284-16.169326 28.382328-29.930455 28.382328L95.983874 768.021502c-17.717453 0-31.994625 14.277171-31.994625 31.994625s14.277171 31.994625 31.994625 31.994625l40.767344 0c46.615824 0 87.727196-36.466991 93.403662-83.082815l30.790526-177.86259L315.473879 187.301865c1.720141-14.793214 15.309256-27.350244 28.726356-27.350244l519.826642 0c17.717453 0 31.994625-14.277171 31.994625-31.994625S881.744331 95.962372 864.026877 95.962372zM384.279523 223.94087c-16.685369 0-30.618512 12.729044-31.82261 29.586427-1.376113 17.545439 11.868974 33.026709 29.586427 34.230808l434.163615 31.994625c15.997312 0.172014 29.414413 12.55703 31.134554 26.834201l50.400134 288.295649c1.204099 10.664875-1.720141 22.533848-8.084663 29.758441-4.128339 4.644381-9.288762 7.052579-15.309256 7.052579L319.946246 671.6936c-17.717453 0-31.994625 14.277171-31.994625 31.994625S302.400806 736.026877 319.946246 736.026877l554.05745 0c24.426004 0 46.959852-10.148833 63.301193-28.554342 18.749538-21.157736 27.178229-50.744163 23.565933-81.706703l-50.400134-288.467663c-5.504452-44.895683-45.927768-81.362674-92.027549-81.362674l-431.755417-31.82261C385.82765 224.112884 384.967579 223.94087 384.279523 223.94087z"  horiz-adv-x="1024" />

    
    <glyph glyph-name="shouyefill" unicode="&#59216;" d="M982.028557 491.594826 573.32303 812.057114c-34.918864 27.694272-89.619352 27.694272-124.538216 0L43.175542 491.422812c-13.933143-11.008903-16.169326-31.134554-5.332437-44.895683s31.134554-16.169326 44.895683-5.332437l13.073072 10.320847 0-387.547791c0-54.872501 56.936671-95.983874 107.852847-95.983874l639.892491 0c50.22812 0 84.1149 38.531161 84.1149 95.983874L927.672098 452.547623l14.449185-11.352931c5.84848-4.644381 12.729044-6.880564 19.781623-6.880564 9.460776 0 18.921552 4.128339 25.286074 12.213002C998.369898 460.460272 995.789686 480.585923 982.028557 491.594826zM607.897867 98.886612l0-66.741475-63.989249 0-63.989249 0-63.989249 0 0 66.741475 0 112.325214c0 37.155048 30.102469 77.234336 95.983874 77.234336 66.053418 0 95.983874-40.079288 95.983874-77.234336L607.897867 98.886612 607.897867 98.886612z"  horiz-adv-x="1024" />

    
    <glyph glyph-name="shouye" unicode="&#59217;" d="M979.792374 491.422812 574.183101 812.057114c-34.918864 27.694272-89.619352 27.694272-124.538216 0L44.207626 491.422812c-13.933143-11.008903-16.169326-31.134554-5.332437-44.895683s30.618512-16.169326 44.551655-5.332437l12.55703 10.320847 0-387.547791c0-54.872501 57.968755-95.983874 108.712918-95.983874l639.892491 0c50.22812 0 83.254829 38.531161 83.254829 95.983874L927.844112 450.139425l11.69696-8.944734c5.84848-4.644381 13.073072-6.880564 20.125651-6.880564 9.460776 0 18.921552 4.128339 25.286074 12.213002C995.9617 460.288258 993.725517 480.413909 979.792374 491.422812zM479.919368 31.973123 479.919368 209.491685c0 8.77272 15.997312 13.245087 31.994625 13.245087s31.994625-4.472367 31.994625-13.245087l0-177.346548L479.919368 31.973123 479.919368 31.973123zM864.026877 63.967747c0-21.157736-5.84848-31.994625-19.26558-31.994625L608.585923 31.973123c0 0.516042-0.688056 0.860071-0.688056 1.376113L607.897867 209.491685c0 37.155048-29.930455 77.234336-95.983874 77.234336s-95.983874-40.079288-95.983874-77.234336l0-176.142449c0-0.516042 0.860071-0.860071 0.860071-1.376113L204.868806 31.973123c-20.125651 0-44.723669 17.373425-44.723669 31.994625L160.145137 502.259701 488.864102 761.828994c11.868974 9.288762 33.198723 9.288762 44.895683 0l330.095078-261.11742L863.854863 63.967747z"  horiz-adv-x="1024" />

    
    <glyph glyph-name="wode" unicode="&#59230;" d="M159.973123-32.016126c-10.664875 0-20.985721 5.332437-27.178229 14.965228-9.460776 14.965228-4.988409 34.74685 9.976818 44.207626 5.504452 3.440282 136.579204 85.491013 240.647741 90.651436l0.516042 0L383.935495 135.697631c-120.409877 49.884092-199.708382 175.626407-199.708382 320.462288 0 189.55955 145.867966 343.856207 325.278683 343.856207s325.278683-154.124643 325.278683-343.856207c0-144.663867-75.858223-267.137914-195.064001-318.398119l0-20.297665c104.756593-9.460776 234.799261-86.695112 240.475727-89.96338 15.137242-9.116748 20.125651-28.726356 11.008903-43.863598-9.116748-15.137242-28.726356-20.125651-43.863598-11.008903-1.204099 0.688056-126.258357 74.826138-214.157568 81.362674l-25.458088 0c-17.717453 0-31.994625 14.277171-31.994625 31.994625l0 73.966068c0 13.589115 8.600706 25.802117 21.673778 30.274483 105.44465 36.294977 173.390223 140.707542 173.390223 266.277843C770.967243 610.456577 653.825634 736.026877 509.67781 736.026877c-144.147825 0-261.289434-125.570301-261.289434-279.866958 0-125.742315 71.385856-233.251134 177.518562-267.653956 13.245087-4.300353 22.18982-16.513355 22.18982-30.446498l0-72.245926c0-17.717453-14.277171-31.994625-31.994625-31.994625l-30.96254 0c-85.835041-4.300353-206.760961-79.986561-207.96506-80.846632C171.842096-30.295985 165.821603-32.016126 159.973123-32.016126z"  horiz-adv-x="1024" />

    
    <glyph glyph-name="xiangji1" unicode="&#59263;" d="M509.505795 146.018478c-105.616664 0-191.451705 85.835041-191.451705 191.451705s85.835041 191.451705 191.451705 191.451705 191.451705-85.835041 191.451705-191.451705S615.122459 146.018478 509.505795 146.018478zM509.505795 465.104653c-70.353771 0-127.63447-57.280699-127.63447-127.63447s57.280699-127.63447 127.63447-127.63447 127.63447 57.280699 127.63447 127.63447S579.859567 465.104653 509.505795 465.104653zM860.586595-13.610616 158.424996-13.610616c-52.808332 0-95.81186 43.003528-95.81186 95.81186L62.613136 592.739123c0 52.808332 43.003528 95.81186 95.81186 95.81186l95.81186 0c17.545439 0 31.994625-14.277171 31.994625-31.994625 0-17.717453-14.277171-31.994625-31.994625-31.994625L158.424996 624.561734c-17.545439 0-31.994625-14.277171-31.994625-31.994625l0-510.53788c0-17.545439 14.277171-31.994625 31.994625-31.994625l701.989585 0c17.545439 0 31.994625 14.277171 31.994625 31.994625L892.409205 592.739123c0 17.545439-14.277171 31.994625-31.994625 31.994625l-350.908785 0c-17.545439 0-31.994625 14.277171-31.994625 31.994625 0 17.717453 14.277171 31.994625 31.994625 31.994625l351.0808 0c52.808332 0 95.81186-43.003528 95.81186-95.81186L956.398455 82.373257C956.22644 29.392911 913.222913-13.610616 860.586595-13.610616zM764.774735 544.747186c0-26.490173 21.501764-47.819923 47.819923-47.819923 26.490173 0 47.819923 21.501764 47.819923 47.819923s-21.501764 47.819923-47.819923 47.819923C786.276499 592.739123 764.774735 571.237359 764.774735 544.747186zM477.683185 752.196204c0-17.545439-14.277171-31.994625-31.994625-31.994625l-127.63447 0c-17.545439 0-31.994625 14.277171-31.994625 31.994625l0 0c0 17.545439 14.277171 31.994625 31.994625 31.994625l127.63447 0C463.234 784.190828 477.683185 769.913657 477.683185 752.196204L477.683185 752.196204z"  horiz-adv-x="1024" />

    
    <glyph glyph-name="iconfontsousuo1" unicode="&#58951;" d="M751.924531 236.516045c0 0-14.597018-19.314893-34.143027-38.246093l225.047552-220.522496 37.352243 34.920346L751.924531 236.516045zM831.845888 475.573658c0-218.921062-168.635494-383.259853-377.654374-383.259853C236.24192 95.476736 78.201242 267.103642 78.201242 475.276902c0 201.086874 170.110157 370.649702 375.990374 370.649702C663.210394 845.926605 831.845888 674.156442 831.845888 475.573658zM452.816179 795.686298c-179.1616 0-324.372685-145.326899-324.372685-326.566707 0-181.240832 145.211085-327.570534 324.372685-327.570534 179.186176 0 328.787456 146.329702 328.787456 327.570534C781.603635 650.360422 632.002458 795.686298 452.816179 795.686298z"  horiz-adv-x="1024" />

    
    <glyph glyph-name="wode1" unicode="&#58991;" d="M960.053977-128l-0.938726 7.791427C933.074988 95.116424 732.506765 270.320267 512 270.320267c-220.506765 0-421.074988-175.185068-447.096476-390.52884l-0.938726-7.791427L5.087896-128l1.051373 9.819075C26.509626 71.68582 159.395695 242.815592 336.814932 307.606468l5.407062 1.990099-4.843827 3.116571c-90.699718 58.332441-144.84544 155.509369-144.84544 259.989586C192.532727 744.921418 341.827729 896 512 896c170.191045 0 319.467273-151.078582 319.467273-323.334825 0-104.461443-54.145723-201.63837-144.84544-259.989586l-4.843827-3.116571 5.407062-1.990099c177.419237-64.809651 310.305306-235.920648 330.675663-425.787393L1018.912104-128 960.053977-128zM512 836.353342c-131.515529 0-260.590371-130.614352-260.590371-263.669392 0-138.912691 137.5797-242.717025 260.590371-242.717025 123.010671 0 260.590371 103.78556 260.590371 242.717025C772.590371 705.73899 643.515529 836.353342 512 836.353342z"  horiz-adv-x="1024" />

    
    <glyph glyph-name="xiaoxi" unicode="&#59027;" d="M922.218896 594.093972c-22.661116 49.453319-55.04671 93.817736-96.260367 131.86119-41.032532 37.875632-88.769766 67.595514-141.887544 88.333838-54.852282 21.415752-113.079428 32.275077-173.063591 32.275077s-118.212332-10.858302-173.064614-32.275077c-53.117778-20.739347-100.856036-50.459229-141.887544-88.333838-41.213657-38.043455-73.600275-82.407871-96.260367-131.86119-23.554462-51.404764-35.497469-106.020662-35.497469-162.331155 0-64.028269 15.290241-125.43585 45.446052-182.516894 23.836895-45.121664 56.942897-86.434581 96.680946-120.907721l7.776104-227.167836 270.040273 116.530017c8.90788-0.488117 17.860786-0.737804 26.76662-0.737804 59.984163 0 118.212332 10.858302 173.063591 32.274054 53.117778 20.739347 100.856036 50.459229 141.887544 88.333838 41.213657 38.043455 73.600275 82.407871 96.260367 131.86119 23.554462 51.404764 35.496445 106.020662 35.496445 162.331155S945.772334 542.689209 922.218896 594.093972zM511.00637 80.776977c-12.70844 0-25.520233 0.576121-38.081317 1.714038l-0.041956-0.467651-0.101307 0.23536-198.00361-85.442998-5.563716 162.534793-0.182149-0.00614 0.201591 0.270153c-89.685625 67.048045-141.122111 166.242232-141.122111 272.148283 0 193.533808 171.766039 350.98584 382.89355 350.98584 211.128535 0 382.89355-157.452032 382.89355-350.98584C893.89992 238.229009 722.134905 80.776977 511.00637 80.776977zM708.745966 546.090679 325.852416 546.090679c-17.549701 0-31.907711-14.358009-31.907711-31.907711l0 0c0-17.549701 14.358009-31.907711 31.907711-31.907711L708.745966 482.275257c17.549701 0 31.907711 14.358009 31.907711 31.907711l0 0C740.653677 531.732669 726.294644 546.090679 708.745966 546.090679zM644.963291 353.168808 325.884139 353.168808c-17.549701 0-31.907711-14.358009-31.907711-31.907711l0 0c0-17.549701 14.358009-31.907711 31.907711-31.907711L644.963291 289.353386c17.549701 0 31.907711 14.358009 31.907711 31.907711l0 0C676.871001 338.810798 662.511969 353.168808 644.963291 353.168808z"  horiz-adv-x="1024" />

    
    <glyph glyph-name="sousuo2" unicode="&#58981;" d="M733.044372 210.053296c0 0-14.44499-19.171642-33.878598-37.905308l223.233224-218.768539 37.030381 34.666544L733.044372 210.053296zM812.269761 447.205531c0-217.192647-167.293167-380.196115-374.680495-380.196115-216.229716 3.151783-373.017622 173.420725-373.017622 379.933125 0 199.508893 168.781054 367.67801 373.017622 367.67801C645.063575 814.620551 812.269761 644.263605 812.269761 447.205531zM436.275341 764.809075c-177.798429 0-321.718259-144.181797-321.718259-323.994092s144.094816-324.957023 321.80524-324.957023c177.798429 0 326.182944 145.144728 326.182944 324.957023S613.986789 764.809075 436.275341 764.809075z"  horiz-adv-x="1024" />

    
    <glyph glyph-name="xiazai4" unicode="&#58884;" d="M960.053977-128l-0.938726 7.791427C933.074988 95.116424 732.506765 270.320267 512 270.320267c-220.506765 0-421.074988-175.185068-447.096476-390.52884l-0.938726-7.791427L5.087896-128l1.051373 9.819075C26.509626 71.68582 159.395695 242.815592 336.814932 307.606468l5.407062 1.990099-4.843827 3.116571c-90.699718 58.332441-144.84544 155.509369-144.84544 259.989586C192.532727 744.921418 341.827729 896 512 896c170.191045 0 319.467273-151.078582 319.467273-323.334825 0-104.461443-54.145723-201.63837-144.84544-259.989586l-4.843827-3.116571 5.407062-1.990099c177.419237-64.809651 310.305306-235.920648 330.675663-425.787393L1018.912104-128 960.053977-128zM512 836.353342c-131.515529 0-260.590371-130.614352-260.590371-263.669392 0-138.912691 137.5797-242.717025 260.590371-242.717025 123.010671 0 260.590371 103.78556 260.590371 242.717025C772.590371 705.73899 643.515529 836.353342 512 836.353342z"  horiz-adv-x="1024" />

    
    <glyph glyph-name="xiazai12" unicode="&#58892;" d="M512 76.768l-303.264-159.424 57.92 337.664-245.344 239.136 339.04 49.28 151.616 307.232 151.616-307.232 339.04-49.28-245.344-239.136 57.92-337.664z"  horiz-adv-x="1024" />

    
    <glyph glyph-name="huiyuanzhongxin" unicode="&#58935;" d="M511.977999 767.279337c-211.663724 0-383.278313-171.598216-383.278313-383.278313s171.614589-383.279337 383.278313-383.279337c211.685213 0 383.28957 171.59924 383.28957 383.279337S723.664236 767.279337 511.977999 767.279337zM738.052944 207.118454c0-2.333138-0.280386-4.599761-0.796132-6.776334-0.035816-2.082428-0.072655-2.724041-0.106424-0.462534-3.234671-12.737092-14.806217-22.168905-28.582989-22.168905L315.390645 177.71068c-16.281825 0-29.486568 13.173021-29.486568 29.407774l0 9.80532c0 2.142803 0.23536 4.229325 0.672312 6.242168 1.549286 44.340881 35.697013 55.084573 35.697013 55.084573l101.329826 33.355689 34.279734 18.437931-0.23843 37.95545c0 0-25.608238 12.205996-25.660426 42.669822-1.122567 0.094144-2.307555 0.187265-3.701299 0.35918-18.268062 2.323928-33.92567 30.823006-35.267225 50.161447-1.341554 19.348674 14.535041 20.992103 14.535041 20.992103l13.849426-4.559852c0 0-6.040576 17.96107-6.040576 68.028373 0 23.003923 6.16542 34.268478 18.444071 41.614793 0 0.083911-0.030699 0.177032-0.030699 0.280386 0 0-18.413372 43.470047 79.994915 44.343951 94.843088-0.873903 94.614891-81.721233 94.614891-81.721233l-0.313132-29.673833-2.817162-38.874379c1.007957 0.379647 13.390985 0.561795 14.648628 0.561795 11.051707 0 10.168594-21.895683 10.168594-21.895683s-13.319353-46.932915-31.586392-49.256844c-1.600451-0.192382-2.942005-0.306992-4.199649-0.38988-3.306302-24.994254-28.717042-41.85834-28.717042-41.85834l0-39.739073 33.614585-17.476023 104.760972-33.697473c0 0 30.191626-10.021238 32.894178-52.570309 0.788969-2.654456 1.218758-5.462408 1.218758-8.372691L738.054991 207.118454z"  horiz-adv-x="1024" />

    
    <glyph glyph-name="daipingjia" unicode="&#58888;" d="M533.04071 147.619338l-54.509475 1.930979-0.89437 0.102331c-60.83453 6.869455-118.274754 28.290323-166.110225 61.945841-51.827389 36.467563-89.452311 85.693708-108.808148 142.357242-23.916712 69.988004-20.962427 147.928121-18.10638 223.300762 0.893346 23.566742 1.736551 45.825698 1.736551 67.410296 0 27.644617 23.426549 50.916647 50.818409 50.204425 42.999326-1.107217 77.06826-11.163247 113.38949-27.548426 10.29753 26.618241 24.808012 50.585095 43.322691 71.507614 43.031049 48.634674 80.550571 72.27714 114.700345 72.27714 22.050202 0 46.112224-9.759271 71.514777-29.004591 17.584494-13.3214 35.592636-31.215956 49.41034-49.095161 16.70445-21.630646 29.115108-44.286646 37.569664-68.686359 39.284725 16.587793 77.647451 29.195949 123.271558 30.546713 0.461511 0.014326 0.942465 0.021489 1.424442 0.021489 12.898775 0 25.177426-5.190209 34.574447-14.614859 9.503445-9.531074 14.932084-22.535249 14.893198-35.677571-0.099261-40.23333-0.848321-81.071434-1.573845-120.56389-0.164752-8.975419-0.329505-17.949814-0.487094-26.924209-0.110517-6.368034-0.154519-12.976546-0.197498-19.36914-0.249687-37.620829-0.508583-76.522838-13.334703-114.136503-41.926902-123.156948-159.137417-209.9415-291.661709-215.943191L533.04071 147.619338zM482.001267 196.199777l50.79078-1.801019c113.093754 5.494131 212.920344 79.452563 248.607124 184.28005 10.380418 30.440289 10.612709 65.48341 10.838859 99.373265 0.042979 6.515391 0.088004 13.251815 0.202615 19.874653 0.157589 8.990768 0.322341 17.978467 0.488117 26.965142 0.722454 39.311331 1.468444 79.960123 1.566682 119.832226 0.002047 0.647753-0.384763 1.678222-1.251503 2.547009-0.64059 0.642636-1.233084 0.87595-1.473561 0.87595-46.687322-1.382487-85.043908-17.014512-130.34158-37.307697l-26.234501-11.752672-6.152117 28.080545c-6.16542 28.14706-18.113543 53.420677-36.526915 77.263711-22.451338 29.05064-59.502186 59.932997-83.934644 59.932997-11.090593 0-36.19127-7.341199-79.694063-56.509015-19.638269-22.191418-33.704636-48.825009-41.809221-79.161944l-7.416923-27.759227-25.667589 12.914124c-41.467437 20.86419-74.076112 33.164331-118.042463 34.296107 0 0 0 0 0 0-1.02433 0-2.857071-1.787716-2.857071-3.477194 0-22.469758-0.859577-45.159526-1.77032-69.180616-2.694365-71.109548-5.480828-144.640238 15.628956-206.418256C278.451338 276.851655 370.65532 209.073992 482.001267 196.199777zM404.729369-3.876028c-8.116865 0-16.003486 4.233418-20.316721 11.786441-29.735232 52.066843-78.075193 119.133308-139.501194 142.950759-24.964578 9.66922-58.599629 11.19804-87.768973 3.983731-18.058284-4.466732-50.220798-16.412808-62.729693-46.232974-4.992711-11.902074-18.690688-17.502629-30.592762-12.511965-11.903098 4.992711-17.504676 18.689664-12.511965 30.592762 15.129582 36.065404 48.729841 62.178131 94.611821 73.526597 38.588877 9.5454 81.908498 7.385201 115.882264-5.774517 33.357735-12.933567 65.785286-36.411281 96.386234-69.784366 23.531949-25.662473 46.010917-57.145511 66.813708-93.570095 6.40078-11.208273 2.50403-25.484418-8.705266-31.886221C412.642596-2.882398 408.658865-3.876028 404.729369-3.876028zM619.268584-3.876028c-3.929496 0-7.91118 0.991584-11.568477 3.080152-11.208273 6.401804-15.106046 20.677948-8.705266 31.886221 20.802792 36.427654 43.282782 67.907623 66.814732 93.570095 30.600949 33.373085 63.028499 56.851822 96.379071 69.78232 33.980929 13.160741 77.302597 15.319917 115.889427 5.776563 45.883003-11.348466 79.483262-37.46017 94.611821-73.528644 4.992711-11.902074-0.60989-25.599028-12.512988-30.591739-11.902074-4.992711-25.600051 0.607844-30.592762 12.511965-12.508895 29.820166-44.670385 41.765219-62.729693 46.232974-29.170366 7.215332-62.805418 5.686513-87.775112-3.985778-61.418838-23.813359-109.7588-90.882893-139.494031-142.948713C635.273093 0.35739 627.385449-3.876028 619.268584-3.876028zM907.275044 109.557464M512.000512-43.107541c-12.906961 0-23.37129 10.463306-23.37129 23.370267L488.629221 171.009048c0 12.906961 10.464329 23.370267 23.37129 23.370267s23.37129-10.463306 23.37129-23.370267l0-190.746322C535.371802-32.644235 524.907473-43.107541 512.000512-43.107541z"  horiz-adv-x="1024" />

    
    <glyph glyph-name="yan1" unicode="&#59017;" d="M512 108.8c-147.2 0-294.4 57.6-403.2 166.4 0 0 0 0 0 0C76.8 300.8 64 332.8 64 371.2 64 416 76.8 448 108.8 480c224 217.6 588.8 217.6 812.8 0C947.2 448 960 416 960 371.2c0-38.4-12.8-76.8-44.8-102.4C806.4 160 659.2 108.8 512 108.8zM147.2 313.6c198.4-198.4 524.8-198.4 723.2 0 19.2 19.2 25.6 38.4 25.6 57.6 0 25.6-6.4 44.8-25.6 57.6-198.4 198.4-524.8 198.4-723.2 0C134.4 416 121.6 396.8 121.6 371.2 121.6 352 134.4 332.8 147.2 313.6L147.2 313.6zM512 230.4c-83.2 0-147.2 64-147.2 147.2 0 76.8 64 147.2 147.2 147.2 83.2 0 147.2-64 147.2-147.2C659.2 294.4 595.2 230.4 512 230.4zM512 460.8c-44.8 0-83.2-38.4-83.2-83.2 0-44.8 38.4-83.2 83.2-83.2s83.2 38.4 83.2 83.2C595.2 422.4 556.8 460.8 512 460.8z"  horiz-adv-x="1024" />

    
    <glyph glyph-name="weibo" unicode="&#58960;" d="M727.647 393.322c-34.835 6.74-17.878 25.135-17.878 25.135s34.088 55.471-6.812 95.854c-50.556 49.953-173.686-6.295-173.686-6.295-46.936-14.342-34.519 6.597-27.851 42.193 0 42.021-14.544 113.056-139.771 71.179-125.056-42.321-232.406-190.227-232.406-190.227C54.572 332.907 64.43 256.927 64.43 256.927c18.624-167.794 199.267-213.853 339.785-224.775 147.791-11.366 347.346 50.256 407.76 177.063C872.562 336.199 762.625 386.438 727.647 393.322L727.647 393.322 727.647 393.322zM415.109 79.418c-146.727-6.725-265.43 65.79-265.43 162.406 0 96.759 118.703 174.232 265.43 180.957 146.869 6.74 265.747-53.086 265.747-149.543C680.855 176.768 561.978 85.986 415.109 79.418L415.109 79.418 415.109 79.418zM385.877 359.22C238.26 342.176 255.362 205.781 255.362 205.781s-1.523-43.228 39.519-65.2c86.313-46.216 175.355-18.252 220.163 39.031C560.024 236.737 533.668 376.12 385.877 359.22L385.877 359.22 385.877 359.22zM348.629 167.656c-27.564-3.146-49.81 12.56-49.81 35.296 0 22.576 19.688 46.361 47.252 49.19 31.645 3.003 52.223-14.945 52.223-37.824C398.439 191.728 376.049 170.789 348.629 167.656L348.629 167.656 348.629 167.656zM435.687 240.775c-9.37-6.869-20.867-5.979-25.723 2.4-5.145 8.076-3.19 20.938 6.207 27.663 10.894 8.077 22.247 5.692 27.248-2.385C448.277 260.377 444.798 247.961 435.687 240.775L435.687 240.775 435.687 240.775zM799.559 452.4c11.957 0 21.959 8.666 23.798 20.034 0.143 0.905 0.287 1.653 0.287 2.543 18.021 159.877-132.786 132.357-132.786 132.357-13.337 0-24.087-10.62-24.087-24.072 0-13.163 10.75-23.784 24.087-23.784 108.241 23.626 84.5-83.308 84.5-83.308C775.185 463.006 786.107 452.4 799.559 452.4L799.559 452.4 799.559 452.4zM781.997 731.454c-52.081 12.129-105.827 1.653-120.83-1.192-1.208-0.144-2.271-1.193-3.335-1.336-0.459-0.159-0.89-0.605-0.89-0.605-14.86-4.181-25.61-17.647-25.61-33.656 0-18.983 15.608-34.676 35.152-34.676 0 0 18.913 2.543 31.789 7.473 12.703 5.073 120.83 3.736 174.434-85.104 29.23-64.913 12.876-108.27 10.748-115.298 0 0-6.984-16.914-6.984-33.498 0-19.142 15.608-31.258 35.152-31.258 16.181 0 29.833 2.243 33.771 29.304l0.144 0C1003.367 621.086 875.264 710.071 781.997 731.454L781.997 731.454 781.997 731.454zM781.997 731.454"  horiz-adv-x="1024" />

    
    <glyph glyph-name="buoumaotubiao14" unicode="&#58893;" d="M313.836392 548.796012c-36.407342 0-66.062271-29.631724-66.062271-66.062271s29.631724-66.062271 66.062271-66.062271c36.430546 0 66.085475 29.631724 66.085475 66.062271S350.266939 548.796012 313.836392 548.796012L313.836392 548.796012 313.836392 548.796012zM512.023204 548.796012c-36.407342 0-66.062271-29.631724-66.062271-66.062271s29.631724-66.062271 66.062271-66.062271 66.062271 29.631724 66.062271 66.062271S548.430546 548.796012 512.023204 548.796012L512.023204 548.796012 512.023204 548.796012zM710.186812 548.796012c-36.407342 0-66.085475-29.631724-66.085475-66.062271s29.654929-66.062271 66.085475-66.062271c36.384138 0 66.039066 29.631724 66.039066 66.062271S746.570949 548.796012 710.186812 548.796012L710.186812 548.796012 710.186812 548.796012zM512.023204 20.390664c-12.831906 0-23.204169 10.395468-23.204169 23.204169s10.372264 23.204169 23.204169 23.204169c255.315477 0 463.039202 174.704192 463.039202 389.435577S767.338681 845.670156 512.023204 845.670156c-255.338681 0-463.085611-174.704192-463.085611-389.435577 0-130.314616 77.107455-251.440381 206.285067-324.069431 11.161206-6.28833 15.129119-20.419669 8.863993-31.604079-6.28833-11.138001-20.419669-15.152323-31.604079-8.840789C88.477498 172.656424 2.529254 308.934512 2.529254 456.23458c0 240.325584 228.56107 435.843916 509.49395 435.843916 280.909676 0 509.447541-195.518332 509.447541-435.843916S792.93288 20.390664 512.023204 20.390664zM261.255744-128.023204l37.985225 196.748153c2.413234 12.57666 14.340177 20.860548 27.172082 18.377702 12.57666-2.413234 20.81414-14.595423 18.377702-27.172082l-18.679356-96.877408 174.309721 100.752504c11.068389 6.450759 25.269341 2.622071 31.696896-8.469522 6.404351-11.091593 2.598867-25.292545-8.492726-31.696896L261.255744-128.023204z"  horiz-adv-x="1024" />

    
    <glyph glyph-name="faxian1" unicode="&#58906;" d="M953.74389-24.103722 695.576015 234.178763c72.122621 85.684498 103.216803 203.812919 73.1623 320.281537C719.414957 745.601618 523.794627 860.9139 332.645123 811.646823c-92.586698-23.904433-170.331363-82.430384-218.906685-164.786067-48.575322-82.374102-62.163805-178.720428-38.269605-271.307126 23.895223-92.586698 82.411965-170.340573 164.786067-218.916918 55.8234-32.91976 118.071116-49.77259 181.236737-49.77259 30.011524 0 60.237943 3.815909 90.071412 11.502985 61.405535 15.852036 114.972545 46.820352 157.788699 87.868233l257.308297-257.423931c3.730974-3.741207 8.641821-5.611811 13.542434-5.611811s9.801227 1.870604 13.542434 5.611811C961.225281-43.706175 961.225281-31.586137 953.74389-24.103722zM501.984902 155.477306c-82.683141-21.360494-168.732959-9.202593-242.277976 34.17331-73.55525 43.375903-125.806287 112.787786-147.147338 195.480136-21.342074 82.673931-9.202593 168.713516 34.17331 242.259556 43.385113 73.564459 112.806205 125.824707 195.489346 147.147338 26.690896 6.9022 53.466726 10.194176 79.830163 10.194176 142.275377 0 272.429693-95.860255 309.59515-239.8466 28.072359-108.795868-3.621481-219.2147-74.491575-296.393477-0.541329-0.434905-1.067308-0.89744-1.569752-1.39886-0.784876-0.784876-1.467421-1.629103-2.087545-2.505054C613.661378 202.630233 562.016137 170.962999 501.984902 155.477306zM532.9788 684.119335c-27.935236 16.45988-60.640102 21.061688-92.044346 12.980639-10.241248-2.656503-16.403598-13.093203-13.757329-23.342638 2.63706-10.250458 13.065574-16.366759 23.333428-13.766538 44.413536 11.466146 89.818655-15.337313 101.284801-59.72322 2.225691-8.641821 10.006911-14.365172 18.536168-14.365172 1.581008 0 3.188622 0.187265 4.797259 0.617054 10.240225 2.63706 16.403598 13.074783 13.757329 23.324218C580.777433 641.248945 560.923246 667.641035 532.9788 684.119335z"  horiz-adv-x="1024" />

    
    <glyph glyph-name="shouye1" unicode="&#58973;" d="M999.103969 445.019783 600.03496 863.564645C559.394816 906.188151 492.394773 906.891714 450.867491 865.138345L26.049704 438.007791C-23.655972 388.031519 1.212199 327.718954 71.688022 328.16804L191.983925 328.934578 156.438281 364.243559 156.438281-21.836305C156.438281-80.336883 203.589196-127.825676 261.911636-127.825676L389.99329-127.825676 389.99329-57.206301 261.911636-57.206301C242.721404-57.206301 227.0793-41.452108 227.0793-21.836305L227.0793 364.243559C227.0793 383.832508 211.12822 399.677378 191.533656 399.552523L71.237753 398.785967C66.173938 398.753711 62.895469 399.286852 61.736428 399.77402 63.980271 398.830898 67.084328 396.006265 69.04654 391.247349 70.980045 386.558028 70.786089 382.505376 69.931418 380.389337 70.455361 381.686545 72.463158 384.515398 76.143505 388.215782L500.961291 815.346336C514.458349 828.916873 535.692465 828.693892 548.901395 814.840331L947.970422 396.295469C951.487338 392.606913 953.386928 389.778254 953.891186 388.421973 953.219595 390.228346 953.125848 393.794872 954.837927 397.917349 956.584273 402.122344 959.306191 404.679224 961.229598 405.535573 960.049848 405.010323 956.841363 404.429214 951.877986 404.397594L952.328255 333.77965C1022.230896 334.225081 1047.266224 394.507051 999.103969 445.019783ZM774.238215-127.825676C832.500577-127.825676 879.711571-80.292569 879.711571-21.836305L879.711571 368.402246 844.616195 333.093282 952.328255 333.77965 951.877986 404.397594 844.165926 403.711227C824.747205 403.587484 809.070551 387.815424 809.070551 368.402246L809.070551-21.836305C809.070551-41.402462 793.373788-57.206301 774.238215-57.206301L646.156562-57.206301 646.156562-127.825676 774.238215-127.825676ZM582.482144 225.213166C582.575273 225.213166 582.632792-127.982363 582.632792-127.982363L653.273812-127.982363 653.273812 225.381452C653.273812 264.26342 621.484606 295.83254 582.482144 295.83254L441.501384 295.83254C402.513769 295.83254 370.709699 264.353372 370.709699 225.381452L441.350736 225.381452C441.350736 225.193022 582.482144 225.213166 582.482144 225.213166ZM441.350736 225.381452 370.709699 225.381452 370.709699-127.982363 441.350736-127.982363 441.350736 225.381452Z"  horiz-adv-x="1024" />

    
    <glyph glyph-name="daipingjia1" unicode="&#58913;" d="M379.78112 116.608c-29.49632 32.15872-60.73344 54.76864-92.89728 67.24608-32.74752 12.67712-74.49088 14.75072-111.6672 5.56032-44.22656-10.93632-76.61568-36.09088-91.1872-70.83008-4.8128-11.4688 0.5888-24.6528 12.0576-29.47072 11.47392-4.8128 24.66304 0.58368 29.47072 12.05248 12.06272 28.70272 43.04896 40.22272 60.45696 44.53376 28.11904 6.93248 60.53888 5.47328 84.60288-3.84 59.18208-22.94272 105.7792-87.55712 134.43072-137.71264 4.15232-7.2704 11.75552-11.37152 19.58912-11.37152 3.7632 0 7.60832 0.9728 11.136 2.9696 10.8032 6.1696 14.57152 19.92704 8.40192 30.73024C424.13056 61.55776 402.46784 91.904 379.78112 116.608L379.78112 116.608zM972.01152 118.58432c-14.57152 34.7392-46.97088 59.89376-91.19232 70.83008-37.18144 9.1904-78.94016 7.1168-111.6928-5.56032-32.128-12.47744-63.37536-35.08736-92.8768-67.24608-22.69184-24.704-44.34944-55.02464-64.39424-90.13248-6.17472-10.8032-2.41152-24.56064 8.3968-30.73024 3.5328-2.00192 7.35232-2.9696 11.14112-2.9696 7.8336 0 15.44192 4.10112 19.58912 11.37152 28.65152 50.16064 75.25376 114.76992 134.4256 137.70752 24.07936 9.3184 56.49408 10.7776 84.608 3.84512 17.41312-4.31104 48.39424-15.83104 60.46208-44.53376 4.80768-11.4688 17.9968-16.87552 29.47072-12.0576C971.4176 93.93152 976.8192 107.11552 972.01152 118.58432L972.01152 118.58432zM855.71072 404.09088c13.37856 38.7584 13.63456 78.83264 13.91104 117.62688 0.02048 6.56896 0.08192 13.3888 0.18944 19.97312 0.16896 9.22624 0.3328 18.4832 0.49664 27.71968 0.77824 40.704 1.55648 82.77504 1.664 124.25728 0.03072 13.55776-5.62688 26.95168-15.5392 36.7616-9.7792 9.72288-22.6048 15.06304-36.03968 15.06304l-1.48992 0c-47.56992-1.39776-87.56736-14.40768-128.50688-31.50336-8.83712 25.14944-21.74464 48.51712-39.16288 70.784-14.40768 18.43712-33.18784 36.87424-51.52256 50.60096C573.22496 855.19872 548.12672 865.28 525.1328 865.28c-35.59424 0-74.70592-24.38144-119.5776-74.51136-19.2768-21.56032-34.432-46.23872-45.15328-73.68704-37.86752 16.90112-73.40032 27.25888-118.22592 28.41088-0.41472 0.01024-0.82432 0.01536-1.23904 0.01536-28.02176 0-51.74784-23.68512-51.74784-51.7632 0-22.24128-0.86016-45.19936-1.80736-69.46304-2.96448-77.69088-6.0672-158.00832 18.8928-230.13376 20.16768-58.40384 59.38688-109.1328 113.4336-146.7136 49.85856-34.67776 109.75232-56.76544 173.17888-63.83104l0.91648-0.11264 21.4272-0.74752 0-280.6016c0-3.52256 2.85696-6.37952 6.37952-6.37952l25.50784 0c3.52256 0 6.37952 2.85696 6.37952 6.37952l0 279.51616C690.88256 188.52352 812.20096 277.72416 855.71072 404.09088L855.71072 404.09088zM716.48768 278.41024c-23.84896-17.45408-50.10432-31.34464-78.0288-41.28256-28.43648-10.12224-58.0864-15.9488-88.1408-17.3312l-53.6064 1.88416c-56.96 6.41536-110.60224 26.17856-155.15136 57.1648-47.3344 32.91648-81.60256 77.1072-99.11296 127.81568-22.5792 65.24928-19.65568 141.824-16.82944 215.8848l0.01024 0.24576c0.85504 22.13888 1.82784 47.23712 1.82784 70.94272 0 6.9376 6.54848 13.49632 13.47584 13.49632 0.08704 0 0.17408 0 0.256 0 35.712-0.91648 65.72544-8.18688 103.6032-25.09312l36.64384-16.3584 14.60224 37.376c9.00608 23.05536 21.80608 43.95008 38.02112 62.08512 36.1728 40.40704 67.6608 61.76256 91.06944 61.76256 14.32064 0 32.16896-7.70048 51.6352-22.27712 15.75936-11.79648 31.90272-27.65824 44.31872-43.5456 14.848-18.97472 25.70752-38.55872 33.19808-59.88352l13.43488-38.25152 37.41696 15.62112c33.56672 14.01856 70.64064 27.16672 114.34496 28.54912l0.90624 0c3.33824 0 6.46656-1.36192 9.05728-3.93728l0.03584-0.03072 0.03584-0.03584c2.63168-2.60096 4.18816-6.13888 4.18304-9.45664-0.10752-39.65952-0.80896-79.45216-1.65888-123.62752l0-0.04608-0.03072-1.85856c-0.1536-8.60672-0.3072-17.23904-0.46592-25.84064l-0.00512-0.03584 0-0.04096c-0.1024-6.21568-0.15872-13.09696-0.19456-20.44928l0 0 0-0.1792c-0.26624-37.2224-0.51712-72.38144-11.82208-105.13408-9.45152-27.44832-23.22432-53.33504-40.94464-76.94336C761.17504 316.416 740.28544 295.82848 716.48768 278.41024L716.48768 278.41024z"  horiz-adv-x="1024" />

    
    <glyph glyph-name="zuji" unicode="&#58999;" d="M220.311685 774.42406m-121.229039 0a118.468 118.468 0 1 0 242.458077 0 118.468 118.468 0 1 0-242.458077 0ZM464.436728 821.442934m-72.63939 0a70.985 70.985 0 1 0 145.278781 0 70.985 70.985 0 1 0-145.278781 0ZM668.793022 778.874419m-72.63939 0a70.985 70.985 0 1 0 145.278781 0 70.985 70.985 0 1 0-145.278781 0ZM852.27694 676.637943m-72.63939 0a70.985 70.985 0 1 0 145.278781 0 70.985 70.985 0 1 0-145.278781 0ZM390.45783 652.333398c0 0-91.729168 4.437056-152.37234-55.67502s-61.650105-111.096261-29.244045-163.865091 102.464673-49.737798 97.333816-170.416298c-5.130857-120.679523-54.196343-121.621988-61.555961-193.400778s9.564843-168.784124 173.075871-193.557344 325.879022 104.900142 361.943402 221.819015c36.063357 116.918873 85.375459 215.795834 79.509868 318.357721-6.837732 119.55184-64.525596 235.43001-208.121038 236.08288S390.45783 652.333398 390.45783 652.333398z"  horiz-adv-x="1024" />

    
    <glyph glyph-name="sousuo3" unicode="&#59000;" d="M892.717949 449.641026C892.717949 696.158279 692.876235 896 446.358974 896 199.841713 896 0 696.158279 0 449.641026 0 203.123772 199.841713 3.282051 446.358974 3.282051 692.876235 3.282051 892.717949 203.123772 892.717949 449.641026ZM52.512821 449.641026C52.512821 667.156249 228.843756 843.487179 446.358974 843.487179 663.874192 843.487179 840.205128 667.156249 840.205128 449.641026 840.205128 232.125802 663.874192 55.794872 446.358974 55.794872 228.843756 55.794872 52.512821 232.125802 52.512821 449.641026ZM979.177498-120.309676 1016.309681-83.177504 780.001989 153.130189 742.869806 115.998016 979.177498-120.309676Z"  horiz-adv-x="1024" />

    
    <glyph glyph-name="download" unicode="&#58896;" d="M483.2 73.6v256c0 12.8 12.8 25.6 25.6 25.6s25.6-12.8 25.6-25.6v-256l51.2 38.4c12.8 6.4 25.6 6.4 38.4-6.4 12.8-19.2 6.4-32-6.4-38.4l-96-70.4c0-6.4-6.4-6.4-12.8-6.4s-12.8 0-12.8 6.4l-96 70.4c-12.8 6.4-12.8 25.6-6.4 38.4 6.4 12.8 25.6 12.8 38.4 6.4l51.2-38.4zM278.4 112h-19.2c-115.2 0-204.8 102.4-204.8 224 0 128 96 230.4 211.2 224 38.4 128 147.2 217.6 268.8 217.6 134.4 0 249.6-102.4 281.6-249.6 89.6-19.2 153.6-102.4 153.6-204.8 0-115.2-83.2-211.2-185.6-211.2-32 0-96 0-166.4 57.6-12.8 12.8-12.8 32 0 38.4 12.8 12.8 25.6 12.8 38.4 0 51.2-51.2 96-44.8 121.6-44.8h6.4c76.8 0 134.4 70.4 134.4 160 0 83.2-57.6 153.6-128 160-12.8 0-19.2 12.8-25.6 19.2-19.2 128-115.2 224-230.4 224-102.4 0-198.4-83.2-224-198.4 0-12.8-12.8-19.2-32-19.2h-25.6c-83.2 0-147.2-76.8-147.2-172.8s64-172.8 147.2-172.8h12.8c25.6 0 57.6 0 102.4 44.8 12.8 12.8 25.6 12.8 38.4 0 12.8-12.8 12.8-25.6 0-38.4-51.2-51.2-96-57.6-128-57.6z"  horiz-adv-x="1024" />

    
    <glyph glyph-name="weixin" unicode="&#58900;" d="M1068.227-16.823L1100.702-128 982.31-61.147c-43.155-11.167-86.504-22.333-129.463-22.333-205.385 0-367.08 144.676-367.08 322.852 0 177.884 161.695 322.902 367.08 322.902 193.926 0 366.592-145.018 366.592-322.902 0-100.352-64.561-189.196-151.211-256.195z m-334.41 400.92c-21.503 0-43.153-22.332-43.153-44.52 0-22.478 21.65-44.519 43.154-44.519 32.622 0 54.028 22.04 54.028 44.52 0 22.187-21.406 44.52-54.028 44.52z m237.374 0c-21.31 0-42.862-22.332-42.862-44.52 0-22.478 21.553-44.519 42.862-44.519 32.378 0 54.028 22.04 54.028 44.52 0 22.187-21.65 44.52-54.028 44.52z m-512.585-150.04c0-32.329 4.876-63.488 13.312-93.233-13.312-1.072-26.77-1.804-40.326-1.804-53.834 0-97.183 11.362-151.162 22.382l-150.87-78.02 43.155 133.852C64.658 295.058 0 395.41 0 517.608 0 729.283 194.365 896 431.592 896c212.211 0 398.14-133.218 435.492-312.466-13.75 1.56-27.599 2.633-41.594 2.633-204.995 0-366.884-157.745-366.884-352.11zM291.4 706.804c-32.329 0-65-22.04-65-55.491 0-33.353 32.671-55.735 65-55.735 32.33 0 53.882 22.382 53.882 55.735 0 33.45-21.553 55.49-53.882 55.49z m302.031 0c-32.329 0-64.804-22.04-64.804-55.491 0-33.353 32.475-55.735 64.804-55.735 32.525 0 54.029 22.382 54.029 55.735 0 33.45-21.504 55.49-54.029 55.49z"  horiz-adv-x="1220" />

    
    <glyph glyph-name="sousuo4" unicode="&#58905;" d="M924.16-7.168c-1.536 4.096-1.536 4.096-2.56 5.632l-3.072 4.608c-2.048 2.56-4.096 5.12-7.68 9.216-5.632 6.656-14.336 15.36-25.6 27.136-17.408 18.432-35.328 36.352-77.824 79.872-42.496 43.008-59.904 61.44-77.312 79.36-10.752 11.264-18.944 19.968-24.576 26.112-2.56 3.072-4.608 5.12-5.632 6.656 0.512-1.536 0.512-1.536 2.048-4.608 1.536-6.144 1.536-6.144-5.632-19.968 67.072 64.512 105.984 154.112 105.984 250.368 0 190.464-151.552 344.576-338.432 344.576-186.88 0-338.432-154.112-338.432-344.576 0-190.464 151.552-344.576 338.432-344.576 4.096 0 8.192 0 13.312 0.512 3.584 0.512 6.144 0.512 11.776 1.024 10.752 1.024 14.848 1.536 19.456 1.536 7.68 0 19.968 2.56 38.4 7.68 2.048 0.512 4.096 1.024 6.656 2.048 7.168 2.048 13.824 4.096 20.992 6.144 4.096 1.024 7.168 2.048 9.216 3.072 10.752 3.584 16.896 15.36 13.312 26.112-3.584 10.752-14.848 16.896-25.6 13.824-1.536-0.512-4.608-1.536-8.704-2.56l-19.968-6.144-6.144-1.536c-13.824-4.096-25.088-6.144-27.648-6.144-6.656 0-11.264-0.512-23.552-1.536-5.12-0.512-7.68-1.024-10.752-1.024-3.584-0.512-7.168-0.512-9.728-0.512-164.352 0-297.472 135.68-297.472 302.592 0 167.424 133.12 302.592 297.472 302.592s297.472-135.68 297.472-302.592c0-84.48-33.792-163.328-93.184-220.16-7.68-14.336-7.68-14.336-5.632-20.992 1.536-3.584 1.536-3.584 2.56-5.632l3.072-4.608c2.048-2.56 4.096-5.12 7.68-9.216 5.632-6.656 14.336-15.36 25.6-27.136 17.408-18.432 35.328-36.352 77.824-79.872 42.496-43.52 60.416-61.44 77.824-79.36 10.752-11.264 18.944-19.968 24.576-26.112 2.56-3.072 4.608-5.12 5.632-6.656-0.512 1.536-0.512 1.536-2.048 4.608-1.536 6.656-1.536 6.656 6.656 20.48-8.704-7.68-9.728-20.48-2.56-29.184 7.168-8.704 20.48-9.728 28.672-2.56 6.656 14.336 6.656 14.336 5.12 21.504z"  horiz-adv-x="1024" />

    
    <glyph glyph-name="zuji1" unicode="&#58909;" d="M742.4 678.4c0 12.8 6.4 25.6 12.8 38.4 12.8 6.4 25.6 12.8 38.4 12.8 12.8 0 25.6-6.4 38.4-12.8 12.8-6.4 12.8-25.6 12.8-38.4 0-12.8-6.4-25.6-12.8-38.4-12.8-6.4-25.6-12.8-38.4-12.8-12.8 0-25.6 6.4-38.4 12.8-6.4 12.8-12.8 25.6-12.8 38.4zM601.6 768c0 12.8 6.4 32 19.2 44.8 12.8 12.8 25.6 19.2 44.8 19.2 19.2 0 32-6.4 44.8-19.2 12.8-12.8 19.2-25.6 19.2-44.8 0-19.2-6.4-32-19.2-44.8-12.8-12.8-25.6-19.2-44.8-19.2-19.2 0-32 6.4-44.8 19.2-12.8 12.8-19.2 25.6-19.2 44.8z m-185.6 25.6c0 19.2 6.4 38.4 19.2 51.2 12.8 12.8 32 19.2 51.2 19.2 19.2 0 38.4-6.4 51.2-19.2 12.8-12.8 19.2-32 19.2-51.2 0-19.2-6.4-38.4-19.2-51.2-12.8-12.8-32-19.2-51.2-19.2-19.2 0-38.4 6.4-51.2 19.2-12.8 12.8-19.2 32-19.2 51.2z m-236.8-12.8c0 25.6 12.8 44.8 25.6 64 19.2 19.2 44.8 25.6 64 25.6 25.6 0 51.2-12.8 64-25.6 19.2-19.2 25.6-38.4 25.6-64s-12.8-44.8-25.6-64c-19.2-19.2-44.8-25.6-64-25.6-25.6 0-51.2 12.8-64 25.6-19.2 19.2-25.6 38.4-25.6 64z m435.2-115.2H384h-6.4-12.8C281.6 659.2 217.6 595.2 217.6 512c0-57.6 32-102.4 76.8-134.4 0 0 89.6-44.8 0-268.8-6.4-19.2-12.8-38.4-12.8-57.6 0-83.2 70.4-153.6 160-153.6 38.4 0 76.8 12.8 102.4 38.4 160 128 262.4 320 262.4 537.6v6.4c0 96-83.2 185.6-192 185.6z"  horiz-adv-x="1024" />

    
    <glyph glyph-name="icon-test" unicode="&#58901;" d="M351.505167 405.692045c-9.836019 0-17.792225-7.27673-17.792224-16.261359v-91.205235h-128.967281c-7.607258 0-13.68365-8.043187-13.68365-17.880229 0-9.931187 6.16235-17.879206 13.68365-17.879206h150.86808c5.048993 0 9.330506 3.76065 11.646248 9.069563 0.261966 0.505513 0.592494 0.940418 0.766456 1.531889 0.173962 0.601704 0.260943 1.289366 0.434905 1.880837 0.330528 1.288343 0.853437 2.489704 0.853438 3.76986V389.344728c0 8.983605-7.956206 16.347317-17.809622 16.347317z m504.531912 352.673271H424.58765c-36.367279 0-65.980737-30.030967-65.980737-66.99074v-191.482079H246.684844c-75.55479 0-138.628314-59.556421-144.094816-134.2414l-0.592494-227.170907c0-36.872792 29.595039-66.903759 65.963341-66.903759h49.040926v-5.727445c0-31.493272 31.301913-56.214303 71.272253-56.214302 39.953967 0 71.273277 24.642237 71.273277 56.214302v5.727445h304.902268v-5.727445c0-31.493272 31.318286-56.214303 71.27123-56.214302 39.97341 0 71.273277 24.642237 71.273277 56.214302v5.727445h49.040926c36.367279 0 65.963341 30.030967 65.963341 66.903759V691.374576c0.002047 36.959773-29.594015 66.99074-65.961294 66.99074z m30.29191-619.798145c0-17.279548-13.613042-31.311123-30.29191-31.311123h-84.712357v-41.407062c0-9.758248-15.231913-20.542872-35.687804-20.542872-20.367887 0-35.68985 10.863419-35.68985 20.542872v41.320081H323.876923v-41.320081c0-9.758248-15.232936-20.542872-35.688827-20.542872s-35.671431 10.863419-35.67143 20.542872v41.320081h-84.729754c-16.695241 0-30.29191 14.031575-30.29191 31.311123v149.648299l0.260943 69.131497c1.11438 59.033511 49.963948 107.039875 108.841918 107.039875h147.611919V691.374576c0 17.279548 13.614066 31.311123 30.29191 31.311123h431.450452c16.676821 0 30.29191-14.031575 30.291911-31.311123v-552.807405h0.084934z"  horiz-adv-x="1024" />

    
    <glyph glyph-name="icon-test1" unicode="&#58902;" d="M829.473073 741.563652h-634.930797c-40.804335 0-74.176396-38.143739-74.176396-84.768639v-545.599236c0-46.614667 33.372062-84.758406 74.176396-84.758406h634.930797c40.787962 0 74.160024 38.143739 74.160024 84.758406V656.795013c0.099261 46.623877-33.372062 84.768639-74.160024 84.768639z m0-39.757493c18.989493 0 35.051307-20.602224 35.051307-45.011146v-74.176396H629.507786V701.806159h199.965287z m-239.156891 0v-352.891235l-60.824297 30.795376-17.492397 8.870019-17.476023-8.870019-60.823274-30.795376V701.806159h156.615991z m-395.773906 0h199.948915v-119.187542H159.474596v74.176396c0 24.408923 16.07921 45.011146 35.06768 45.011146z m634.930797-635.611295h-634.930797c-18.989493 0-35.068703 20.602224-35.068703 45.001937V542.945035h235.016595v-198.61043c0-21.839401 17.674545-39.764656 39.207977-39.764655l78.30032 39.764655 78.316693-39.764655c21.516036 0 39.191604 17.926278 39.191604 39.764655V542.945035H864.523357v-431.749258c0.001023-24.399713-16.060791-45.000913-35.050284-45.000913z"  horiz-adv-x="1024" />

    
    <glyph glyph-name="faxianshebei" unicode="&#59444;" d="M916.819 101.317L774.474 243.661c37.493 60.701 58.531 132.649 55.722 209.889-7.224 198.668-169.895 357.747-368.675 360.526C250.572 817.025 78.975 645.428 81.924 434.479 84.703 235.7 243.783 73.029 442.45 65.804c77.239-2.809 149.187 18.229 209.889 55.722l142.344-142.344c33.727-33.727 88.409-33.727 122.136 0 33.726 33.726 33.726 88.408 0 122.135z m-748.56 338.517c0 158.753 129.154 287.908 287.908 287.908s287.908-129.154 287.908-287.908S614.92 151.926 456.166 151.926 168.259 281.08 168.259 439.834z"  horiz-adv-x="1024" />

    
    <glyph glyph-name="wode2" unicode="&#58930;" d="M957.1328 47.0016a501.9648 501.9648 0 0 1-14.9504 28.0576 519.936 519.936 0 0 1-105.728 126.8736 516.096 516.096 0 0 1-182.1184 103.0144 315.136 315.136 0 0 1 70.8096 53.248 312.5248 312.5248 0 0 1 92.6208 222.72c0 84.1728-32.9216 163.328-92.6208 222.8224A314.5728 314.5728 0 0 1 502.272 896h-3.8912a314.5728 314.5728 0 0 1-218.9312-92.2624 312.5248 312.5248 0 0 1-92.6208-222.8224c0-84.1216 32.9216-163.2768 92.6208-222.72a317.3376 317.3376 0 0 1 70.8096-53.248 516.096 516.096 0 0 1-204.0832-123.392 519.3216 519.3216 0 0 1-83.7632-106.496A499.1488 499.1488 0 0 1 0.3072-107.52c-0.7168-5.3248 0-19.0976 0-19.0976h59.7504s-0.512 6.2976 0 9.8304a464.7936 464.7936 0 0 0 130.7136 259.1744c81.3056 81.92 191.9488 133.3248 311.5008 133.5296 120.0128-0.4096 230.4-51.8144 311.552-133.5296a464.8448 464.8448 0 0 0 130.7136-259.1744c1.9456-13.312 1.3312-10.0352 0-9.8304 1.3312-0.2048 59.7504 1.4848 59.7504 0 0-1.536 2.304 1.8432 0 19.0976a498.9952 498.9952 0 0 1-47.1552 154.5216zM499.712 328.9088c-117.9648 0.8704-223.1808 82.5344-251.904 192.1536a232.96 232.96 0 0 0-7.8336 59.904 239.2576 239.2576 0 0 0 7.7824 60.4672c28.928 112.3328 135.1168 201.6256 253.8496 201.6256 120.1152 0 226.304-89.2928 255.1808-201.6256l0.9216-3.6864a233.0624 233.0624 0 0 0-0.9216-116.736c-28.7232-109.568-133.9392-191.232-251.904-192.1024H499.712z"  horiz-adv-x="1024" />

    
    <glyph glyph-name="my_light" unicode="&#59349;" d="M800 544C800 701.866667 672 832 512 832S224 701.866667 224 544c0-117.333333 70.4-219.733333 172.8-264.533333-130.133333-42.666667-236.8-153.6-270.933333-296.533334-2.133333-10.666667 4.266667-23.466667 14.933333-25.6h4.266667c10.666667 0 19.2 6.4 21.333333 17.066667C204.8 136.533333 349.866667 256 509.866667 256h2.133333c160 0 288 130.133333 288 288z m-533.333333 0C266.666667 678.4 377.6 789.333333 512 789.333333s245.333333-110.933333 245.333333-245.333333S646.4 298.666667 512 298.666667s-245.333333 110.933333-245.333333 245.333333zM893.866667-17.066667c-23.466667 96-78.933333 179.2-157.866667 234.666667l-21.333333 14.933333c-10.666667 6.4-23.466667 4.266667-29.866667-6.4-6.4-10.666667-4.266667-23.466667 6.4-29.866666l21.333333-14.933334c70.4-49.066667 121.6-123.733333 140.8-211.2 2.133333-10.666667 10.666667-17.066667 21.333334-17.066666h4.266666c10.666667 6.4 17.066667 17.066667 14.933334 29.866666z"  horiz-adv-x="1024" />

    
    <glyph glyph-name="search_light" unicode="&#59354;" d="M955.733333-27.733333l-149.333333 153.6C876.8 202.666667 917.333333 302.933333 917.333333 405.333333c0 224-181.333333 405.333333-405.333333 405.333334S106.666667 629.333333 106.666667 405.333333s181.333333-405.333333 405.333333-405.333333c64 0 125.866667 14.933333 183.466667 42.666667 10.666667 4.266667 14.933333 17.066667 8.533333 27.733333-4.266667 10.666667-19.2 14.933333-27.733333 8.533333-51.2-25.6-106.666667-38.4-164.266667-38.4-200.533333 0-362.666667 162.133333-362.666667 362.666667S311.466667 768 512 768s362.666667-162.133333 362.666667-362.666667c0-100.266667-42.666667-196.266667-115.2-264.533333-8.533333-8.533333-8.533333-21.333333 0-29.866667 2.133333-2.133333 4.266667-4.266667 8.533333-4.266666l157.866667-162.133334c4.266667-4.266667 10.666667-6.4 14.933333-6.4 6.4 0 10.666667 2.133333 14.933333 6.4 6.4 6.4 8.533333 19.2 0 27.733334z"  horiz-adv-x="1024" />

    
    <glyph glyph-name="scan_light" unicode="&#59355;" d="M928 405.333333h-832c-12.8 0-21.333333-8.533333-21.333333-21.333333s8.533333-21.333333 21.333333-21.333333h832c12.8 0 21.333333 8.533333 21.333333 21.333333s-10.666667 21.333333-21.333333 21.333333zM896 253.866667c-12.8 0-21.333333-8.533333-21.333333-21.333334V85.333333c0-36.266667-29.866667-64-64-64h-147.2c-12.8 0-21.333333-8.533333-21.333334-21.333333s8.533333-21.333333 21.333334-21.333333H810.666667c59.733333 0 106.666667 49.066667 106.666666 106.666666v147.2c0 10.666667-10.666667 21.333333-21.333333 21.333334zM360.533333 19.2H213.333333c-36.266667 0-64 29.866667-64 64v149.333333c0 12.8-8.533333 21.333333-21.333333 21.333334s-21.333333-8.533333-21.333333-21.333334v-149.333333c0-59.733333 49.066667-106.666667 106.666666-106.666667h147.2c12.8 0 21.333333 8.533333 21.333334 21.333334s-10.666667 21.333333-21.333334 21.333333zM128 512c12.8 0 21.333333 8.533333 21.333333 21.333333v149.333334c0 36.266667 29.866667 64 64 64h149.333334c12.8 0 21.333333 8.533333 21.333333 21.333333s-8.533333 21.333333-21.333333 21.333333h-149.333334c-59.733333 0-106.666667-49.066667-106.666666-106.666666v-149.333334c0-12.8 8.533333-21.333333 21.333333-21.333333zM663.466667 746.666667H810.666667c36.266667 0 64-29.866667 64-64v-149.333334c0-12.8 8.533333-21.333333 21.333333-21.333333s21.333333 8.533333 21.333333 21.333333v149.333334c0 59.733333-49.066667 106.666667-106.666666 106.666666h-147.2c-12.8 0-21.333333-8.533333-21.333334-21.333333s8.533333-21.333333 21.333334-21.333333z"  horiz-adv-x="1024" />

    
    <glyph glyph-name="weixin1" unicode="&#58961;" d="M269.787059 265.842821L236.310419 130.203354 454.656879 228.821596zM1023.996062-29.22422l93.419517-91.213998L1116.864199 29.537129zM1036.126421 256.390594a56.240755 56.240755 0 0 1 0 112.323972 56.240755 56.240755 0 0 1 0-112.323972z m-255.210149 20.007215a36.23354 36.23354 0 1 1 0 72.467079 36.23354 36.23354 0 0 1 0-72.467079zM909.151495 502.148514c197.630328 0 357.766819-127.762611 357.766819-285.378508 0-157.615897-160.136491-285.378508-357.766819-285.378509S551.384676 59.154109 551.384676 216.770006C551.384676 374.385903 711.521167 502.148514 909.151495 502.148514zM545.477034 669.13787a57.107209 57.107209 0 1 0 114.214418-0.630148 57.107209 57.107209 0 0 0-114.214418 0.630148m-259.54242-47.024832a48.442667 48.442667 0 1 0 0.55138 96.885334 48.442667 48.442667 0 0 0-0.55138-96.885334m571.465934-63.881306C846.766792 745.070766 660.715443 894.731038 431.262616 895.991335 194.090469 897.330401 1.107486 739.95081 0.004726 544.526002c-1.10276-195.346039 190.226083-354.852382 427.240693-356.112679 25.836089-0.157537 50.963261 1.890446 75.617821 5.356262a243.946244 243.946244 0 0 0-8.034393 63.014851c1.023991 162.499548 161.554325 293.964282 362.571701 301.447296"  horiz-adv-x="1339" />

    
    <glyph glyph-name="xiaoxi-" unicode="&#58890;" d="M273.261714-67.584a32.182857 32.182857 0 0 0-29.988571 44.617143c16.749714 41.325714 32.182857 87.844571 35.84 108.251428a39.789714 39.789714 0 0 0-4.608 17.627429c0 17.846857 14.482286 32.402286 32.329143 32.402286 12.288 0 23.625143-6.070857 30.500571-16.237715 5.851429-8.557714 14.555429-21.504-4.022857-83.456l-1.609143-5.266285 4.827429 2.706285c58.075429 32.914286 96.402286 63.195429 102.692571 80.896a31.451429 31.451429 0 0 0 36.132572 20.406858 14.921143 14.921143 0 0 1 2.998857 0.512c1.170286 0.292571 2.340571 0.658286 3.437714 0.658285 229.961143 0 417.060571 156.013714 417.060571 347.867429C898.852571 675.108571 711.68 831.268571 481.792 831.268571S64.731429 675.108571 64.731429 483.401143c0-103.277714 57.417143-201.508571 157.476571-269.385143a32.475429 32.475429 0 0 0-36.352-53.613714C67.730286 240.566857 0 358.326857 0 483.401143 0 710.875429 216.137143 896 481.792 896c265.654857 0 481.792-185.051429 481.792-412.598857 0-223.597714-212.48-408.502857-473.673143-412.306286h-1.097143l-0.658285-0.877714c-43.227429-61.147429-165.376-118.784-201.874286-135.021714a32.402286 32.402286 0 0 0-13.019429-2.779429z m66.779429 446.902857c-18.066286 0-32.841143 12.507429-32.841143 27.940572 0 15.36 14.774857 27.867429 32.914286 27.867428h213.577143c18.066286 0 32.841143-12.434286 32.841142-27.867428 0-15.36-14.774857-27.940571-32.841142-27.940572H340.114286z m0.292571 125.659429c-18.285714 0-33.133714 12.507429-33.133714 27.940571 0 15.36 14.848 27.940571 33.133714 27.940572H623.177143c18.285714 0 33.133714-12.580571 33.133714-27.940572 0-15.36-14.848-27.940571-33.133714-27.940571H340.333714z"  horiz-adv-x="1024" />

    
    <glyph glyph-name="zhiboziyuan" unicode="&#58903;" d="M845.755733 726.016a477.866667 477.866667 0 1 1 64.853334-78.370133l-56.9344-37.6832a409.6 409.6 0 1 0-55.637334 67.242666l47.7184 48.810667zM512 179.2a204.8 204.8 0 1 1 0 409.6 204.8 204.8 0 0 1 0-409.6z m0 68.266667a136.533333 136.533333 0 1 0 0 273.066666 136.533333 136.533333 0 0 0 0-273.066666zM921.6 588.8a136.533333 136.533333 0 1 1 0 273.066667 136.533333 136.533333 0 0 1 0-273.066667z m0 68.266667a68.266667 68.266667 0 1 0 0 136.533333 68.266667 68.266667 0 0 0 0-136.533333z"  horiz-adv-x="1092" />

    
    <glyph glyph-name="richscan_icon" unicode="&#58977;" d="M39.78 495.11c0.003-0 0.006-0 0.010-0 15.337 0 27.77 12.433 27.77 27.77 0 0.004-0 0.007-0 0.011l0 305.549h305.55c15.342 0 27.78 12.438 27.78 27.78s-12.438 27.78-27.78 27.78h-333.33c-0.003 0-0.006 0-0.010 0-15.337 0-27.77-12.433-27.77-27.77 0-0.004 0-0.007 0-0.011l-0-333.329c-0-0.003-0-0.006-0-0.010 0-15.337 12.433-27.77 27.77-27.77 0.004 0 0.007 0 0.011 0zM373.11-60.44h-305.55v305.55c0 15.342-12.438 27.78-27.78 27.78s-27.78-12.438-27.78-27.78v-333.33c-0-0.003-0-0.006-0-0.010 0-15.337 12.433-27.77 27.77-27.77 0.004 0 0.007 0 0.011 0l333.329-0c15.342 0 27.78 12.438 27.78 27.78 0 15.342-12.438 27.78-27.78 27.78zM984.22 884h-333.33c-15.342 0-27.78-12.438-27.78-27.78s12.438-27.78 27.78-27.78h305.55v-305.55c0-0 0-0 0-0 0-15.342 12.438-27.78 27.78-27.78 15.342 0 27.78 12.438 27.78 27.78 0 0 0 0 0 0v333.33c0 0.006 0 0.013 0 0.020 0 15.331-12.429 27.76-27.76 27.76-0.007 0-0.014-0-0.021-0zM984.22 272.89c-0.006 0-0.013 0-0.020 0-15.331 0-27.76-12.429-27.76-27.76 0-0.007 0-0.014 0-0.021l-0-305.549h-305.55c-0 0-0 0-0 0-15.342 0-27.78-12.438-27.78-27.78 0-15.342 12.438-27.78 27.78-27.78 0 0 0 0 0 0h333.33c0.006-0 0.013-0 0.020-0 15.331 0 27.76 12.429 27.76 27.76 0 0.007-0 0.014-0 0.021l0 333.329c0 0.006 0 0.013 0 0.020 0 15.331-12.429 27.76-27.76 27.76-0.007 0-0.014-0-0.021-0zM984.22 411.78h-944.44c-15.342-0-27.78-12.438-27.78-27.78 0-15.342 12.438-27.78 27.78-27.78h944.44c15.342 0 27.78 12.438 27.78 27.78s-12.438 27.78-27.78 27.78z"  horiz-adv-x="1024" />

    
    <glyph glyph-name="xinwen" unicode="&#58975;" d="M666.087 656.723h155.66v38.913h-155.66v-38.913z m-77.83 38.913h-233.49v-233.488h233.49V695.636z m-38.915-194.574h-155.66v155.66h155.66v-155.66z m-194.576-389.15h466.981v38.915H354.766v-38.915zM880.119 831.84H296.394c-42.984 0-77.83-34.846-77.83-77.83v-19.458h-77.83c-42.984 0-77.828-34.846-77.828-77.83v-642.098c0-42.984 34.845-77.83 77.828-77.83H880.12c42.986 0 77.831 34.846 77.831 77.83V754.01c-0.001 42.984-34.846 77.83-77.832 77.83z m38.917-817.216c0-21.493-17.424-38.917-38.917-38.917H140.734c-21.491 0-38.915 17.424-38.915 38.917V656.723c0 21.491 17.424 38.913 38.915 38.913h77.83v-583.724h38.915V754.01c0 21.493 17.422 38.915 38.915 38.915H880.12c21.493 0 38.917-17.422 38.917-38.915v-739.386z m-564.27 214.033h466.981v38.915H354.766v-38.915z m311.321 330.776h155.66V598.35h-155.66v-38.917z m0-97.286h155.66v38.915h-155.66v-38.915zM354.766 345.4h466.981v38.917H354.766V345.4z"  horiz-adv-x="1024" />

    
    <glyph glyph-name="weixin2" unicode="&#58937;" d="M323 748.4c-264.4-47.2-352.5-346-142.2-482.7 11.5-7.4 11.5-6.6-5.8-58.2l-14.8-44.2 53.3 28.5 53.3 28.6 28.3-6.9c29.7-7.4 67.5-12.6 92.8-12.6H403l-5.2 20c-41.5 152.7 101.8 304 288.2 304h25.3l-5.2 18.1c-41 143-213.7 235.6-383.1 205.4m-23-133.8c28-18.9 29.7-59.9 2.7-77.4-43.7-28.6-94.7 21.7-65.3 64.5 12.9 19.3 43.9 25.6 62.6 12.9m225.1 0c46.1-31 11.5-102.7-40.1-82.9-37.3 14.3-41.7 65.6-6.9 84 13.8 7.5 35.2 6.9 47-1.1M627 501.5C496 477.6 405.1 378.2 410.4 264c6.9-152.9 186.2-258.4 358.3-211.1l20.3 5.5 42.8-23.1c23.6-12.9 43.4-22.2 43.9-21.1 0.6 1.4-4.1 17.9-10.2 36.8-13.7 42.3-14 39.3 4.4 52.4C1077 251.9 895.2 550.1 627 501.5m-5.2-123.3c11.5-7.7 17.6-26.9 12.6-40.9-10.4-29.9-55.2-32.1-67.3-3.3-13.7 33.3 24.2 64 54.7 44.2m183.4-3.3c18.1-17.3 15.1-46.7-6-57.7-32.4-16.5-66.4 16.5-49.7 48 10.9 20.5 39.2 25.4 55.7 9.7m0 0z"  horiz-adv-x="1024" />

    
    <glyph glyph-name="quit" unicode="&#58889;" d="M463.278798-128H63.252087c-34.190317 0-63.252087 29.06177-63.252087 63.252087V832.747913C0 866.93823 27.352254 896 63.252087 896h400.026711c34.190317 0 63.252087-29.06177 63.252087-63.252087s-27.352254-63.252087-63.252087-63.252087H124.794658v-770.991652h338.48414c34.190317 0 63.252087-29.06177 63.252087-63.252087s-29.06177-63.252087-63.252087-63.252087zM1032.547579 424.173623L704.320534 759.238731c-35.899833 37.609349-99.15192 11.966611-99.15192-41.02838V639.572621c0-32.480801-25.642738-58.123539-58.123539-58.123539H278.651085c-32.480801 0-58.123539-25.642738-58.123539-58.123539v-278.651086c0-32.480801 25.642738-58.123539 58.123539-58.123539H547.045075c32.480801 0 58.123539-25.642738 58.123539-58.123539v-78.63773c0-51.285476 63.252087-76.928214 99.15192-41.02838l328.227045 333.355592c22.223706 23.933222 22.223706 59.833055 0 82.056762z"  horiz-adv-x="1049" />

    
    <glyph glyph-name="shouye2" unicode="&#58897;" d="M882.531 455.988L582.3 768.192c-18.624 19.34-43.592 30.084-70.3 30.084s-51.676-10.642-70.3-30.084L141.571 455.988c-31.005-32.233-27.014-60.067-21.898-71.732 3.684-8.289 15.963-30.903 51.471-30.903h44.001v-240.165c0-54.541 39.192-105.91 94.859-105.91h127.808V261.462c0 27.22-4.093 42.466 23.74 42.466H562.55c27.834 0 23.74-15.145 23.74-42.466v-254.184h127.706c55.667 0 94.859 51.369 94.859 105.91V353.353h44c35.509 0 47.788 22.717 51.472 30.903 5.116 11.665 9.107 39.499-21.796 71.732z m-29.675-53.21H759.328v-289.59c0-27.22-17.6-56.383-45.434-56.383h-78.281V261.462c0 54.54-17.498 91.89-73.165 91.89H461.45c-55.667 0-73.165-37.35-73.165-91.89v-204.76h-78.281c-27.834 0-45.434 29.164-45.434 56.384V402.675H171.042c-0.921 0-1.637 3.377-2.354 3.48 1.74 2.967 4.707 10.539 9.62 15.655l300.23 312c8.903 9.414 21.592 15.042 33.871 14.94 12.28 0.102 24.15-5.629 33.155-14.94l300.129-311.897c4.912-5.117 7.88-12.69 9.516-15.657-0.614-0.102-1.432-3.479-2.353-3.479z"  horiz-adv-x="1024" />

    
    <glyph glyph-name="icon-" unicode="&#58957;" d="M143.36 404.48h286.72a20.48 20.48 0 0 0 0-40.96H143.36a20.48 20.48 0 0 0 0 40.96zM491.52-5.12H122.88a40.96 40.96 0 0 0-40.96 40.96V773.12a40.96 40.96 0 0 0 40.96 40.96h614.4a40.96 40.96 0 0 0 40.96-40.96v-389.12h40.96V773.12a81.92 81.92 0 0 1-81.92 81.92H122.88a81.92 81.92 0 0 1-81.92-81.92v-737.28a81.92 81.92 0 0 1 81.92-81.92h368.64zM163.84 588.8H143.36a20.48 20.48 0 0 1 0-40.96h20.48zM716.8 588.8H204.8v-40.96h512a20.48 20.48 0 0 1 0 40.96zM889.856 321.536c-105.0624 63.8976-173.2608-57.344-173.2608-57.344s-68.4032 121.0368-173.2608 57.344c-182.0672-110.592 175.104-369.8688 175.104-369.8688s353.4848 259.072 171.4176 369.8688zM716.8 27.4432s-257.4336 180.8384-150.1184 243.0976c81.92 47.9232 149.504-84.7872 149.504-84.7872s44.2368 132.7104 148.6848 86.8352C962.56 212.992 716.8 27.4432 716.8 27.4432z"  horiz-adv-x="1024" />

    
    <glyph glyph-name="huiyuanzhongxin1" unicode="&#59262;" d="M224 192c-54.4 0-96-41.6-96-96v-64c0-19.2 12.8-32 32-32h704c19.2 0 32 12.8 32 32v64c0 54.4-41.6 96-96 96h-576z m0 64h576c89.6 0 160-70.4 160-160v-64c0-54.4-41.6-96-96-96h-704c-54.4 0-96 41.6-96 96v64c0 89.6 70.4 160 160 160z m192 512c-35.2 0-64-28.8-64-64v-160c0-89.6 70.4-160 160-160s160 70.4 160 160v160c0 35.2-28.8 64-64 64h-192z m0 64h192c70.4 0 128-57.6 128-128v-160c0-124.8-99.2-224-224-224s-224 99.2-224 224v160c0 70.4 57.6 128 128 128z"  horiz-adv-x="1024" />

    
    <glyph glyph-name="shouji1" unicode="&#58883;" d="M742.4 857.6c25.6 0 44.8-19.2 44.8-44.8v-857.6c0-25.6-19.2-44.8-44.8-44.8H281.6c-25.6 0-44.8 19.2-44.8 44.8V812.8c0 25.6 19.2 44.8 44.8 44.8h460.8m0 38.4H281.6c-44.8 0-83.2-38.4-83.2-83.2v-857.6c0-44.8 38.4-83.2 83.2-83.2h460.8c44.8 0 83.2 38.4 83.2 83.2V812.8c0 44.8-38.4 83.2-83.2 83.2zM691.2-51.2H332.8c-12.8 0-19.2 6.4-19.2 19.2s6.4 19.2 19.2 19.2h358.4c12.8 0 19.2-6.4 19.2-19.2s-6.4-19.2-19.2-19.2zM595.2 800H428.8c-38.4 0-76.8 25.6-76.8 51.2V870.4c-6.4 12.8 0 25.6 12.8 25.6 6.4 0 19.2-6.4 19.2-12.8v-19.2c0-12.8 19.2-19.2 38.4-19.2h166.4c19.2 0 38.4 12.8 38.4 19.2l12.8 19.2c0 6.4 12.8 12.8 19.2 12.8 12.8 0 19.2-12.8 12.8-19.2v-19.2c0-32-38.4-57.6-76.8-57.6z"  horiz-adv-x="1024" />

    
    <glyph glyph-name="tuichu" unicode="&#58657;" d="M113.778 839.111h56.889V-71.11h-56.89zM113.778 839.111h56.889V-71.11h-56.89z m625.778 0h56.888v-170.667h-56.888zM739.556 839.111h56.888v-170.667h-56.888z m0-796.444h56.888V-128h-56.888zM739.556 42.667h56.888V-128h-56.888zM113.778 839.11h625.778v-56.889H113.778zM113.778 839.111h625.778v-56.889H113.778z m0-910.222h625.778V-128H113.778zM113.778-71.111h625.778V-128H113.778zM284.444 384h568.89v-56.889h-568.89zM284.444 384h568.89v-56.889h-568.89zM904.533 332.8l17.067 22.756-199.111 199.11-39.822-39.822 159.289-159.288-159.29-164.978 39.823-39.822z"  horiz-adv-x="1024" />

    
    <glyph glyph-name="huiyuanzhongxin2" unicode="&#58958;" d="M921.6 586.752l-184.32-106.496L564.224 686.08c15.36 13.824 24.576 33.792 24.576 56.32 0 42.496-34.304 76.8-76.8 76.8s-76.8-34.304-76.8-76.8c0-22.016 9.728-41.984 24.576-56.32L286.72 480.256 102.4 586.752l-25.6-44.544L236.032-51.2H788.48l158.72 593.408-25.6 44.544zM512 768c14.336 0 25.6-11.264 25.6-25.6s-11.264-25.6-25.6-25.6-25.6 11.264-25.6 25.6 11.264 25.6 25.6 25.6zM247.808 102.4h528.896l-27.648-102.4H274.944l-27.136 102.4z m542.208 51.2H233.984L139.264 505.856l159.232-91.648L509.44 665.6h5.12l210.944-251.392 159.232 91.648-94.72-352.256z"  horiz-adv-x="1024" />

    
    <glyph glyph-name="zan1" unicode="&#58625;" d="M884.88213333 472.85866667h-237.90613333c92.18666667 340.46506667-63.5168 357.8528-63.5168 357.8528-65.99146667 0-52.31146667-52.1792-57.29706667-60.88106667 0-166.5024-176.84906667-296.96746667-176.84906666-296.96746667v-472.17173333c0-46.608 63.5168-63.3952 88.4352-63.3952h357.45173333c33.63946667 0 61.03573333 88.22293333 61.03573333 88.22293333 88.42986667 300.70506667 88.42986667 390.17493333 88.42986667 390.17493334 0.00106667 62.13013333-59.7824 57.16373333-59.7824 57.16373333v0 0zM884.88213333 472.85866667zM251.67253333 472.70293333h-142.45653333c-29.41973333 0-29.87306667-28.896-29.87306667-28.896l29.41973334-476.20373333c0-30.3104 30.3616-30.3104 30.3616-30.3104h123.2992c25.6864 0 25.456 20.0512 25.456 20.0512v479.24906667c0 36.5728-36.208 36.11093333-36.208 36.11093333v0 0zM251.67253333 472.70293333z"  horiz-adv-x="1024" />

    
    <glyph glyph-name="zan11" unicode="&#58885;" d="M861.577 467.305h-223.037c86.425 319.186-59.547 335.487-59.547 335.487-61.867 0-49.042-48.918-53.716-57.076 0-156.096-165.796-278.407-165.796-278.407v-442.661c0-43.695 59.547-59.433 82.908-59.433h335.111c31.537 0 57.221 82.709 57.221 82.709 82.903 281.911 82.903 365.789 82.903 365.789 0.001 58.247-56.046 53.591-56.046 53.591v0 0ZM861.577 467.305ZM267.943 467.159h-133.553c-27.581 0-28.006-27.09-28.006-27.09l27.581-446.441c0-28.416 28.464-28.416 28.464-28.416h115.593c24.081 0 23.865 18.798 23.865 18.798v449.296c0 34.287-33.945 33.854-33.945 33.854v0 0ZM267.943 467.159Z"  horiz-adv-x="1024" />

    
    <glyph glyph-name="mayihuabei" unicode="&#58886;" d="M512-128C229.239467-128 0 101.239467 0 384 0 666.760533 229.239467 896 512 896c282.760533 0 512-229.239467 512-512 0-282.760533-229.239467-512-512-512z m21.7088 684.919467c37.0688-8.260267 72.704 6.929067 79.530667 33.9968 6.894933 26.999467-17.6128 55.6032-54.6816 63.8976-37.102933 8.260267-72.704-6.9632-79.530667-33.9968-6.8608-27.0336 17.6128-55.637333 54.6816-63.8976z m162.269867 169.301333c-85.1968 50.824533-131.9936 36.898133-131.2768 1.4336 0.546133-26.5216 24.746667-33.0752 46.216533-43.349333 72.977067-34.986667 112.3328-88.6784 92.330667-132.266667-18.397867-40.004267-86.698667-54.101333-157.422934-28.603733-72.3968 26.077867-167.355733 88.2688-180.1216 18.1248-10.786133-59.221333 79.121067-61.952 174.455467-158.071467 46.4896-46.830933 57.002667-143.428267 7.099733-196.437333-52.736-56.1152-182.510933-39.185067-242.961066 29.013333-118.784 133.973333-40.209067 256.853333-23.3472 287.061333 13.141333 23.108267 19.8656 38.434133 19.626666 57.002667-0.341333 30.0032-21.333333 49.698133-50.414933 51.438933-34.679467 2.048-60.893867-19.524267-75.3664-51.985066-151.108267-338.670933 174.830933-638.498133 465.5104-527.5648 290.816 111.0016 344.576 521.898667 55.637333 694.203733z"  horiz-adv-x="1024" />

    
    <glyph glyph-name="tuichu1" unicode="&#58904;" d="M599.36 252.64V109.6c0-17.792-14.304-32.224-31.936-32.224H114.88c-17.632 0-31.936 14.432-31.936 32.224V658.4c0 17.792 14.304 32.224 31.936 32.224h452.544c17.632 0 31.936-14.432 31.936-32.224v-143.04h-64.544v78.048c0 13.568-10.72 24.608-23.936 24.608H171.488c-13.248 0-23.968-11.008-23.968-24.608v-418.816c0-13.568 10.72-24.576 23.968-24.576H510.88c13.216 0 23.936 11.008 23.936 24.576V252.64h64.544z m295.392 163.936H322.464v-72.384h572.288v72.352z m46.336-28.992L752 576.704l-55.52-55.52L885.6 332.096l55.488 55.488z m-55.52 52.448L692.352 246.816l55.52-55.52 193.184 193.216-55.488 55.52z"  horiz-adv-x="1024" />

    
    <glyph glyph-name="shouhou" unicode="&#59147;" d="M573.282424-127.999592A510.164797 510.164797 0 0 0 210.433254 22.897352a21.612631 21.612631 0 0 0 30.651134 30.478243 468.300435 468.300435 0 1 1-129.668378 409.023462 21.611396 21.611396 0 1 0-42.617673 7.212032 511.980155 511.980155 0 1 0 504.484087-597.610681zM565.613466 405.209128L387.053934 620.96496a21.626216 21.626216 0 0 0 33.343297 27.551443l145.216235-175.509237 150.477065 181.832114a21.626216 21.626216 0 0 0 33.343297-27.551443zM712.719153 413.79194H413.283995a21.611396 21.611396 0 0 0 0 43.222792h299.435158a21.611396 21.611396 0 0 0 0-43.222792zM709.224282 285.025065H409.801473a21.611396 21.611396 0 0 0 0 43.222793H709.224282a21.611396 21.611396 0 1 0 0-43.222793zM559.512877 78.555959a21.611396 21.611396 0 0 0-21.611396 21.611397V456.347866a21.611396 21.611396 0 0 0 43.222793 0v-356.229908a21.611396 21.611396 0 0 0-21.611397-21.561999zM559.512877 78.555959a21.611396 21.611396 0 0 0-21.611396 21.611397V456.347866a21.611396 21.611396 0 0 0 43.222793 0v-356.229908a21.611396 21.611396 0 0 0-21.611397-21.561999zM0 482.503831l57.424567-227.833515 137.078 196.354972z"  horiz-adv-x="1086" />

    
    </font>
</defs>
</svg>
